<svg version="1.1" id="Layer_1" xmlns="http://www.w3.org/2000/svg" xmlns:xlink="http://www.w3.org/1999/xlink" x="0px" y="0px"
	 width="100%" viewBox="0 0 1364 483" enable-background="new 0 0 1364 483" xml:space="preserve">
<path fill="#FFFFFF" opacity="1.000000" stroke="none" 
	d="
M868.000000,484.000000 
	C578.666687,484.000000 289.833374,484.000000 1.000039,484.000000 
	C1.000026,323.000031 1.000026,162.000061 1.000013,1.000060 
	C455.666626,1.000040 910.333252,1.000040 1365.000000,1.000020 
	C1365.000000,161.999939 1365.000000,322.999878 1365.000000,483.999908 
	C1199.500000,484.000000 1034.000000,484.000000 868.000000,484.000000 
M147.654602,451.427246 
	C146.035980,455.019867 144.279617,458.560425 142.888718,462.239136 
	C142.507492,463.247467 143.221191,464.669739 143.615982,466.972870 
	C144.946121,465.462738 145.225754,465.252411 145.363602,464.972351 
	C146.885620,461.879517 148.236465,458.691620 149.928513,455.696014 
	C152.156158,451.752136 150.919128,450.498016 146.735123,450.395355 
	C143.544189,448.468018 140.371841,446.508209 137.136429,444.658691 
	C136.773926,444.451477 135.668152,444.744965 135.578598,445.022736 
	C135.379410,445.640656 135.350342,446.605713 135.714630,447.049164 
	C136.373993,447.851807 137.371536,448.376617 138.272751,449.050995 
	C136.339005,452.836975 134.572113,456.296234 132.703583,459.954498 
	C133.920792,460.505341 135.216568,461.220001 135.292801,461.107605 
	C137.561996,457.761475 139.710388,454.333405 141.583527,451.382080 
	C143.612289,451.242401 145.239609,451.130371 147.654602,451.427246 
M205.602219,466.293365 
	C212.198807,469.595337 218.585861,466.931244 218.557114,460.723663 
	C218.547546,458.657135 217.541000,456.595184 217.710297,453.996979 
	C219.113647,456.177979 220.365295,458.482483 221.992264,460.481506 
	C222.678818,461.325073 224.156418,461.524811 225.274445,462.017181 
	C225.431778,461.570984 225.589111,461.124756 225.746429,460.678558 
	C224.506134,458.149872 223.265839,455.621185 221.922058,452.881531 
	C226.943573,453.237885 229.851852,459.382568 235.462051,456.150940 
	C233.524979,452.239471 231.844360,448.845856 230.843735,445.023285 
	C231.049896,444.852020 231.256042,444.680756 232.040771,444.850464 
	C234.516251,446.778015 236.897522,448.849915 239.515732,450.558807 
	C240.499283,451.200836 242.392685,451.556244 243.213409,451.025330 
	C244.015396,450.506470 244.394028,448.635254 244.235107,447.455109 
	C243.676865,443.309631 242.807083,439.206116 242.737701,435.104523 
	C245.539139,438.759796 248.340576,442.415100 251.272949,446.241211 
	C253.904434,444.021637 256.166809,442.113434 258.429169,440.205200 
	C258.118317,439.712616 257.807465,439.220032 257.496643,438.727448 
	C255.773163,439.486145 253.381439,441.371033 252.439697,440.812256 
	C247.903778,438.120850 253.923218,437.497040 253.538330,434.222290 
	C251.692169,434.782562 249.943893,435.313171 248.195602,435.843781 
	C247.780502,435.610657 247.365402,435.377563 246.950302,435.144470 
	C248.317139,433.020966 249.683975,430.897461 251.395645,428.238251 
	C254.656342,432.027527 257.561798,435.403931 260.646179,438.988312 
	C261.516785,438.173035 262.297485,437.441925 263.061615,436.726349 
	C261.133514,434.363739 259.407288,432.248505 257.514679,429.929382 
	C262.408081,428.853760 266.697083,434.521362 271.405365,430.001068 
	C268.352966,426.309570 265.616943,423.000732 262.865356,419.673035 
	C264.511047,418.607178 265.941071,417.681000 267.361359,416.761108 
	C269.521088,418.915436 271.398621,421.049713 273.565552,422.832214 
	C274.552551,423.644073 276.111389,423.760803 277.410797,424.192810 
	C276.927887,422.869263 276.732208,421.318512 275.902344,420.269379 
	C274.169403,418.078613 272.101593,416.152710 270.042297,413.981995 
	C271.343201,412.341309 272.473572,410.915710 273.743988,409.313477 
	C277.091736,412.509918 280.159668,415.439270 283.227631,418.368591 
	C283.636993,418.204620 284.046326,418.040680 284.455688,417.876709 
	C284.374176,416.719482 284.540924,415.468079 284.147034,414.429291 
	C283.676971,413.189850 282.726624,412.132568 282.519104,410.135834 
	C289.190643,412.081085 294.555084,409.686859 294.475983,404.167511 
	C294.436340,401.403656 292.187500,398.671417 291.438324,395.208252 
	C294.718323,395.105316 296.307495,401.689606 301.071228,397.871338 
	C298.570190,395.767670 296.505737,394.031250 294.315033,392.188660 
	C298.530640,389.546844 304.026672,394.880798 307.069336,389.202972 
	C298.109985,380.695618 295.279053,379.336426 293.420715,382.569275 
	C295.369263,384.189789 297.317810,385.810333 299.391602,387.535004 
	C295.234619,389.875122 289.734924,385.008575 286.992249,390.286713 
	C288.537750,392.478943 289.784668,394.247589 290.238342,396.116699 
	C286.103821,394.065430 282.500946,394.696838 279.928589,398.609222 
	C277.492279,402.314667 278.414581,405.742676 281.368805,408.847290 
	C281.834473,409.336578 281.812744,410.289673 281.359039,411.423035 
	C279.072723,409.341980 276.786407,407.260925 274.717621,405.377838 
	C269.253448,410.545593 264.092163,415.426880 258.934235,420.305023 
	C260.843658,422.685242 262.501190,424.751526 265.062469,427.944336 
	C261.438599,426.953644 259.414764,426.286896 257.340637,425.870911 
	C255.805511,425.562988 253.829651,424.930481 252.705139,425.578766 
	C249.561813,427.390869 246.680557,429.698395 243.868073,432.019073 
	C243.007507,432.729156 242.704086,434.114441 241.255936,435.073517 
	C237.919434,435.687561 237.818924,435.711609 238.391464,438.106018 
	C239.022430,440.744812 239.862793,443.333496 240.611954,445.944031 
	C240.319672,446.102081 240.027374,446.260162 239.735092,446.418213 
	C237.066101,444.280182 234.397125,442.142120 231.791840,440.055084 
	C229.568756,441.481476 227.573120,442.761932 225.570602,444.046814 
	C226.693344,446.607208 227.690231,448.880554 228.679016,451.135406 
	C223.868988,451.805328 221.146820,444.861328 216.692810,448.487732 
	C216.846039,450.966583 216.960922,452.825104 216.327286,454.365143 
	C212.943848,450.951752 209.223389,450.900208 205.653763,453.786926 
	C202.097275,456.663055 202.422699,460.359039 204.235107,464.157227 
	C204.646820,465.019989 204.748230,466.030823 204.564911,467.637604 
	C203.808090,467.950653 203.035522,468.230621 202.297211,468.582520 
	C199.081909,470.114868 196.326447,469.863434 195.052460,466.144836 
	C193.844437,462.618744 195.397736,460.380432 198.985458,459.489502 
	C199.717499,459.307709 200.410629,458.969330 201.420258,458.591339 
	C198.915344,454.444489 196.285797,456.864105 194.280563,458.181305 
	C190.543991,460.635895 190.041397,464.311127 191.727524,468.303558 
	C193.304169,472.036743 196.192764,473.658295 200.135559,472.801880 
	C203.125916,472.152313 205.832916,470.923462 205.602219,466.293365 
M45.457764,379.518433 
	C45.010880,378.343323 44.737812,377.053772 44.063007,376.028687 
	C43.507771,375.185242 42.475906,374.655579 41.655285,373.986847 
	C41.440720,374.896820 41.288963,375.828033 40.991219,376.709930 
	C40.763390,377.384705 40.351021,377.997162 40.020725,378.637360 
	C39.254921,378.240875 37.807335,377.785736 37.835567,377.457550 
	C38.000866,375.536072 37.884834,373.040527 39.024803,371.857574 
	C42.222057,368.539764 45.193272,370.001892 48.664413,376.415192 
	C52.609421,373.374451 49.254822,371.155426 47.717953,369.334686 
	C44.852028,365.939453 40.069576,365.877869 36.558403,368.726501 
	C33.054508,371.569214 32.891209,375.589020 35.503967,379.806366 
	C38.472950,384.598694 41.295666,382.476227 44.376259,380.177185 
	C44.772133,379.881683 45.505939,380.038971 46.731392,380.530548 
	C44.661575,382.340973 42.591759,384.151428 40.561539,385.927246 
	C44.081963,391.074402 45.424244,385.447357 48.211739,385.649567 
	C49.117550,386.779724 50.314083,388.272583 51.961365,390.327820 
	C50.015831,391.630951 48.385109,392.723236 46.672966,393.870056 
	C50.072670,396.590454 53.733425,394.502411 60.990437,386.622681 
	C58.037704,382.081238 56.572468,387.573364 53.882637,387.440796 
	C52.962330,386.282318 51.769688,384.781006 50.469345,383.144165 
	C52.084393,381.671875 53.396641,380.475616 54.708885,379.279358 
	C54.629467,378.766693 54.550049,378.253998 54.470627,377.741333 
	C53.204754,377.846252 51.881542,377.755005 50.687035,378.104095 
	C49.080070,378.573822 47.572384,379.383209 45.457764,379.518433 
M75.291832,420.688873 
	C76.391975,423.399170 76.398041,423.424225 78.888931,422.821472 
	C82.219261,422.015564 83.527298,423.699097 83.999352,426.715057 
	C84.215187,428.094086 84.805695,429.414429 85.226273,430.761383 
	C88.008797,426.233826 89.623611,422.081238 90.862167,417.819244 
	C91.181175,416.721558 90.705757,414.777100 89.883759,414.140839 
	C89.097382,413.532135 87.207390,413.738281 86.112587,414.249908 
	C82.332443,416.016357 78.687706,418.072632 74.233818,419.565765 
	C77.168167,415.894226 80.102516,412.222717 83.170532,408.383972 
	C78.437576,404.829498 78.217453,412.411682 74.801643,411.377533 
	C73.115128,407.691589 78.522934,402.723267 72.970604,399.521332 
	C62.589142,409.465393 62.435364,409.707428 64.711395,412.689514 
	C66.690285,410.852783 68.654938,409.029266 71.633125,406.265015 
	C71.253334,409.642731 71.350700,411.661377 70.759712,413.452972 
	C69.383301,417.625641 70.505707,419.843842 75.291832,420.688873 
M220.426147,131.629303 
	C237.997162,131.888092 249.784729,123.272499 256.511932,107.517700 
	C261.727722,95.302567 259.735260,83.433517 253.605438,72.001068 
	C250.007538,65.290817 248.267548,58.385010 251.653549,50.974827 
	C252.063019,50.078705 251.851059,48.898632 251.982620,47.085426 
	C245.827927,49.892918 240.336105,52.398037 234.377899,55.115894 
	C234.206696,53.167671 234.136536,52.046669 234.005966,50.932751 
	C232.453445,37.687210 228.584213,25.227167 220.914948,14.203070 
	C219.043350,11.512728 216.312546,9.420113 213.225281,6.290954 
	C212.662125,10.109751 212.343399,12.409355 211.981628,14.702170 
	C209.307968,31.647221 201.211182,44.482632 184.770905,51.265678 
	C171.659561,56.675247 157.116409,59.769650 148.707565,74.441353 
	C146.777863,69.811607 145.894562,66.348839 144.012817,63.559723 
	C142.171356,60.830360 139.312317,58.787548 136.084671,55.651176 
	C135.391647,68.685310 134.649841,70.228790 126.241768,78.202522 
	C124.551247,79.805710 122.861275,81.432961 121.360825,83.209404 
	C107.999840,99.028008 110.508736,117.521645 127.462448,128.604843 
	C129.119843,129.688324 130.713898,130.868713 131.370560,132.177841 
	C95.800293,132.177841 60.230030,132.177841 24.217760,132.177841 
	C24.217760,161.445679 24.013626,189.438110 24.289564,217.425812 
	C24.473356,236.067413 24.227381,254.816467 26.122982,273.317719 
	C30.893250,319.875946 49.437336,360.352234 82.545883,393.848267 
	C107.978508,419.578583 139.271866,435.893616 171.960129,450.116608 
	C178.918686,453.144287 185.582397,453.623474 192.111252,450.283905 
	C204.817688,443.784424 217.753052,437.550079 229.762772,429.901398 
	C293.021210,389.614014 327.928864,331.949768 331.477020,256.921570 
	C333.332794,217.679886 331.890472,178.281830 331.900482,138.954391 
	C331.901001,136.878769 331.553833,134.803040 331.354736,132.572800 
	C329.035828,132.572800 327.378143,132.573990 325.720459,132.572601 
	C294.223450,132.546158 262.726379,132.537964 231.229431,132.470306 
	C227.072601,132.461380 222.916443,132.148697 220.426147,131.629303 
M1296.838135,273.535522 
	C1296.838135,271.088898 1296.838135,268.642242 1296.838135,266.138977 
	C1305.254883,266.138977 1313.141235,266.138977 1321.465088,266.138977 
	C1321.465088,274.231598 1321.465088,281.994873 1321.465088,289.701294 
	C1326.161377,289.701294 1330.407715,289.701294 1334.632202,289.701294 
	C1334.632202,269.805023 1334.632202,250.227905 1334.632202,230.562485 
	C1330.111938,230.562485 1325.893921,230.562485 1321.227783,230.562485 
	C1321.227783,238.489288 1321.227783,246.072556 1321.227783,253.739456 
	C1312.875244,253.739456 1304.979980,253.739456 1296.662109,253.739456 
	C1296.662109,245.843979 1296.662109,238.254028 1296.662109,230.562210 
	C1292.010132,230.562210 1287.791626,230.562210 1283.485107,230.562210 
	C1283.485107,250.495377 1283.485107,270.075470 1283.485107,289.719879 
	C1288.009644,289.719879 1292.247559,289.719879 1296.838135,289.719879 
	C1296.838135,284.460358 1296.838135,279.491516 1296.838135,273.535522 
M1058.172852,230.210709 
	C1054.908325,230.210709 1051.643799,230.210709 1048.319824,230.210709 
	C1048.319824,250.466873 1048.319824,270.031738 1048.319824,289.750244 
	C1052.791748,289.750244 1057.018188,289.750244 1061.699707,289.750244 
	C1061.699707,281.752441 1061.699707,274.008820 1061.699707,266.093170 
	C1070.034180,266.093170 1077.908691,266.093170 1086.207275,266.093170 
	C1086.207275,274.119843 1086.207275,281.864105 1086.207275,289.771667 
	C1090.871948,289.771667 1095.108398,289.771667 1099.407227,289.771667 
	C1099.407227,269.844818 1099.407227,250.167740 1099.407227,230.624146 
	C1094.779541,230.624146 1090.553833,230.624146 1085.930908,230.624146 
	C1085.930908,238.614624 1085.930908,246.197250 1085.930908,253.706268 
	C1077.615723,253.706268 1069.721924,253.706268 1061.668457,253.706268 
	C1061.668457,246.876755 1061.803833,240.383896 1061.551270,233.906174 
	C1061.502197,232.645172 1059.943726,231.443024 1058.172852,230.210709 
M669.723938,283.157745 
	C677.170227,272.337158 674.396484,264.122070 660.995117,257.578369 
	C661.761169,257.142975 662.461548,256.731964 663.173584,256.342255 
	C668.629822,253.356003 671.753906,248.994003 670.992554,242.544556 
	C670.240601,236.176041 665.940186,232.372620 660.212891,231.679535 
	C649.931885,230.435379 639.514832,230.315781 629.169617,229.727097 
	C629.169617,250.563354 629.169617,270.144714 629.169617,289.916229 
	C637.942871,289.916229 646.502136,290.636536 654.857910,289.644135 
	C659.812317,289.055695 664.445740,285.765442 669.723938,283.157745 
M493.675629,277.775421 
	C490.033722,272.784882 486.391815,267.794342 482.730011,262.776520 
	C483.755463,262.220520 485.435303,261.477234 486.935608,260.467255 
	C493.355072,256.145905 495.310638,249.925491 494.001221,242.600479 
	C492.782043,235.780182 487.894562,231.841431 481.614075,231.349121 
	C471.771729,230.577591 461.824463,231.144470 451.632965,231.144470 
	C451.577606,232.264709 451.443207,233.731339 451.442047,235.198044 
	C451.427612,253.313538 451.432617,271.429047 451.432617,289.768066 
	C456.107391,289.768066 460.333710,289.768066 465.016418,289.768066 
	C465.016418,282.111786 465.016418,274.688446 465.016418,267.427643 
	C469.923737,266.258606 472.835052,268.449707 475.019073,271.968109 
	C478.174530,277.051483 481.158508,282.244080 484.424530,287.253906 
	C485.204285,288.449951 486.756500,289.785278 488.046265,289.887726 
	C492.240509,290.220856 496.477783,290.012390 501.407593,290.012390 
	C498.631012,285.636780 496.335144,282.018738 493.675629,277.775421 
M1177.817993,290.011536 
	C1181.419678,290.011536 1185.021240,290.011536 1189.079834,290.011536 
	C1189.079834,282.029175 1189.079834,274.629242 1189.079834,267.405334 
	C1193.781982,266.327057 1196.665527,268.328674 1198.771240,271.673096 
	C1201.956665,276.732391 1204.929321,281.926880 1208.168579,286.950317 
	C1208.970581,288.194000 1210.386963,289.766724 1211.630005,289.869629 
	C1215.961426,290.228088 1220.340576,290.008240 1225.848999,290.008240 
	C1219.074097,280.215179 1213.010620,271.450562 1206.926758,262.656433 
	C1207.585815,262.298218 1209.253174,261.548676 1210.753784,260.548859 
	C1216.776978,256.535583 1218.958252,250.808731 1218.120972,243.742554 
	C1217.417358,237.805115 1214.068848,233.878662 1208.575317,232.133118 
	C1197.747314,228.692490 1186.648193,230.756363 1175.351562,230.141708 
	C1175.351562,249.991150 1175.335083,268.942932 1175.416626,287.894287 
	C1175.419678,288.595215 1176.379272,289.292023 1177.817993,290.011536 
M1148.230957,270.336914 
	C1146.384644,277.260895 1143.193848,279.709229 1136.578003,279.278259 
	C1130.878174,278.906921 1127.544922,275.809387 1126.860107,269.247833 
	C1126.291748,263.802429 1126.394409,258.279755 1126.338623,252.789856 
	C1126.263062,245.348358 1126.319824,237.905502 1126.319824,230.500488 
	C1121.552734,230.500488 1117.449463,230.500488 1112.951294,230.500488 
	C1112.951294,241.896835 1112.938232,253.026978 1112.962646,264.157043 
	C1112.967407,266.320679 1112.943237,268.507416 1113.229858,270.643585 
	C1115.021729,283.991516 1122.630737,290.764893 1135.979614,291.010040 
	C1151.096924,291.287659 1160.096069,285.269775 1161.380371,271.477783 
	C1162.636230,257.991333 1161.653564,244.296356 1161.653564,230.466690 
	C1157.511108,230.466690 1153.432617,230.466690 1148.407349,230.466690 
	C1148.407349,243.632690 1148.407349,256.570740 1148.230957,270.336914 
M685.400635,290.011200 
	C687.391418,290.011200 689.382202,290.011200 690.918579,290.011200 
	C693.194580,285.388153 694.254333,279.293304 697.678162,277.338287 
	C701.451416,275.183624 707.395630,276.830505 712.394104,276.821594 
	C712.893982,276.820709 713.520142,276.627441 713.871582,276.855957 
	C715.308655,277.790405 717.278259,278.563049 717.922424,279.928192 
	C719.438416,283.140961 720.307007,286.659210 721.311890,289.676392 
	C726.466187,289.676392 730.999146,289.676392 735.815491,289.676392 
	C730.033691,273.315826 724.399048,257.344971 718.744812,241.381073 
	C714.729065,230.043381 714.716980,230.167633 702.783691,230.138779 
	C699.742371,230.131424 698.474487,231.107819 697.475830,233.941391 
	C691.677002,250.393860 685.649841,266.765839 679.703918,283.166504 
	C678.931458,285.297211 678.181885,287.436218 677.265076,290.011200 
	C680.136963,290.011200 682.294495,290.011200 685.400635,290.011200 
M765.821289,269.294098 
	C767.311401,269.143524 768.824890,269.111755 770.287903,268.823486 
	C781.120728,266.688934 787.402527,258.874237 787.083252,248.007065 
	C786.782227,237.760956 781.255249,231.802856 769.604553,230.781662 
	C761.228638,230.047516 752.736572,230.638763 744.072510,230.638763 
	C744.072510,250.383698 744.072510,270.057404 744.072510,289.778717 
	C748.486267,289.778717 752.574585,289.778717 757.053589,289.778717 
	C757.053589,286.274475 757.053650,282.984467 757.053650,279.694458 
	C757.053650,276.390930 757.053589,273.087433 757.053589,269.349548 
	C759.965942,269.349548 762.446838,269.349548 765.821289,269.294098 
M905.525818,286.072662 
	C907.367065,282.483154 910.160767,279.067932 910.855896,275.268677 
	C912.416626,266.739227 907.757568,261.035919 900.444519,257.277954 
	C896.312500,255.154633 891.919312,253.467880 888.026611,250.984406 
	C886.367188,249.925690 884.512756,247.072693 884.861206,245.505096 
	C885.284241,243.602081 887.700012,241.704788 889.703369,240.720261 
	C891.503784,239.835510 893.984924,239.750381 896.038025,240.088486 
	C900.213074,240.776001 904.302002,241.987061 908.630859,243.031723 
	C908.630859,240.713837 908.355042,238.349808 908.692322,236.076752 
	C909.271057,232.176437 907.391785,230.399139 903.906311,230.228149 
	C898.286377,229.952454 892.590881,229.441696 887.034729,230.035294 
	C877.503845,231.053482 871.645264,236.609650 870.427673,244.638809 
	C869.234741,252.505493 873.118652,258.916107 881.760498,263.196320 
	C885.329224,264.963867 889.302551,266.141846 892.444031,268.464264 
	C894.523438,270.001526 896.927063,273.431366 896.480652,275.400787 
	C896.031006,277.384155 892.415039,279.475342 889.873108,279.999176 
	C883.076233,281.400055 876.875549,278.955658 870.589172,274.706085 
	C870.589172,278.844330 870.385254,282.306885 870.705933,285.720093 
	C870.810425,286.832336 872.098083,288.450226 873.159424,288.760529 
	C883.997498,291.929749 894.743347,292.717346 905.525818,286.072662 
M520.495361,280.370728 
	C515.212646,278.941895 509.929932,277.513092 504.508301,276.046692 
	C504.508301,278.132233 504.773529,280.644623 504.447906,283.077911 
	C503.921082,287.014435 505.562897,289.331787 509.319458,289.494598 
	C516.883057,289.822449 524.616699,290.722137 531.999695,289.577179 
	C541.128967,288.161346 545.533386,281.044159 545.053589,271.739349 
	C544.717712,265.224640 541.014343,260.980194 535.632935,258.032776 
	C531.272827,255.644775 526.542603,253.884079 522.366638,251.231171 
	C520.568787,250.089096 518.442566,247.077591 518.827698,245.487564 
	C519.313232,243.483017 521.994263,241.103714 524.124756,240.614990 
	C527.385315,239.867004 531.028137,240.299362 534.426636,240.794083 
	C537.098450,241.183029 539.646301,242.423264 542.561279,243.388702 
	C542.561279,240.651581 542.279846,238.287384 542.623535,236.017853 
	C543.221497,232.069641 541.216980,230.354965 537.792664,230.227173 
	C531.681274,229.999084 525.453247,229.428452 519.463989,230.302719 
	C512.412598,231.332062 506.707550,235.087326 504.809296,242.729736 
	C502.657867,251.391251 506.261414,258.389313 515.282654,262.997681 
	C519.413147,265.107666 523.837830,266.756805 527.646057,269.329865 
	C529.336243,270.471863 530.958557,273.642303 530.552246,275.421875 
	C530.138000,277.236542 527.318176,278.679108 525.309448,279.879486 
	C524.274353,280.498047 522.713013,280.236084 520.495361,280.370728 
M994.153625,276.216309 
	C1002.020508,289.786560 1022.140442,295.866241 1035.622559,288.665955 
	C1036.471680,288.212402 1037.412354,287.048645 1037.473022,286.158173 
	C1037.694580,282.911591 1037.560425,279.640778 1037.560425,276.086395 
	C1027.182373,279.727478 1017.264221,282.490601 1009.130371,272.985748 
	C1004.116516,267.126770 1003.583130,256.180878 1008.060669,249.429306 
	C1015.722351,237.876312 1026.508545,240.120071 1037.334106,243.831268 
	C1037.334106,239.500702 1037.334106,235.539139 1037.334106,231.668427 
	C1029.645508,228.925186 1020.739807,228.483215 1013.543213,230.412643 
	C994.828186,235.430206 986.011475,255.663452 994.153625,276.216309 
M1244.621582,247.257843 
	C1252.896973,238.261887 1262.674561,240.393738 1272.558594,243.859695 
	C1273.380127,230.319305 1272.844604,229.728104 1259.660034,229.254028 
	C1258.829224,229.224152 1257.995605,229.209335 1257.165161,229.239731 
	C1227.064331,230.341522 1220.460083,260.720734 1230.311279,277.474579 
	C1233.058350,282.146179 1238.121704,286.289093 1243.086182,288.637878 
	C1251.616455,292.673828 1260.953613,291.800262 1269.874878,288.890900 
	C1271.115723,288.486237 1272.440063,286.537750 1272.648804,285.142761 
	C1273.077759,282.276123 1272.777588,279.300323 1272.777588,276.006531 
	C1269.948853,276.982330 1267.668335,277.940430 1265.299194,278.557281 
	C1253.730103,281.569489 1243.661621,276.791962 1241.232422,266.942047 
	C1239.586182,260.266602 1240.031128,253.726044 1244.621582,247.257843 
M379.986542,271.499451 
	C379.986542,277.597565 379.986542,283.695709 379.986542,289.822998 
	C384.715179,289.822998 388.829834,289.822998 393.361603,289.822998 
	C393.361603,282.214020 393.361603,274.780548 393.361603,266.786774 
	C400.002991,266.786774 406.236511,266.786774 412.557495,266.786774 
	C412.557495,262.955688 412.557495,259.695374 412.557495,255.904755 
	C406.102631,255.904755 399.865112,255.904755 393.688873,255.904755 
	C393.688873,250.780365 393.688873,246.196411 393.688873,241.231140 
	C400.643646,241.231140 407.263977,241.231140 414.066223,241.231140 
	C414.066223,237.416916 414.066223,233.996384 414.066223,230.451202 
	C402.685150,230.451202 391.592438,230.451202 379.986542,230.451202 
	C379.986542,243.944000 379.986542,257.221802 379.986542,271.499451 
M990.569092,372.167847 
	C990.703430,373.404144 990.837769,374.640442 990.987854,376.021393 
	C996.349792,376.021393 1001.333862,376.046875 1006.317688,376.017059 
	C1029.918945,375.875885 1043.512817,357.692108 1037.195068,334.839233 
	C1034.931274,326.650360 1029.844116,321.158569 1021.862183,318.507294 
	C1011.733765,315.143066 1001.307251,316.316895 990.569092,316.337494 
	C990.569092,335.008301 990.569092,353.120453 990.569092,372.167847 
M867.415527,364.828247 
	C872.086670,357.429260 872.709106,349.244751 872.059875,340.818726 
	C870.957825,326.515533 860.965515,316.411926 846.824402,315.287750 
	C832.290833,314.132355 820.073425,322.900452 817.139526,337.023132 
	C816.238220,341.361389 815.935730,345.952484 816.195007,350.378876 
	C816.926025,362.861755 824.563965,372.850677 835.142212,375.880096 
	C847.633057,379.457245 859.203918,375.670319 867.415527,364.828247 
M835.178894,230.231873 
	C820.537537,230.231873 805.896179,230.231873 790.976440,230.231873 
	C790.976440,233.974976 790.976440,237.403381 790.976440,241.257477 
	C796.410950,241.257477 801.691040,241.257477 807.592285,241.257477 
	C807.592285,257.709381 807.592285,273.752747 807.592285,289.628265 
	C812.462585,289.628265 816.695068,289.628265 821.285645,289.628265 
	C821.285645,273.329407 821.285645,257.407104 821.285645,240.983887 
	C827.042725,240.983887 832.432312,240.983887 837.998291,240.983887 
	C837.998291,238.655975 838.242737,236.793823 837.927124,235.032013 
	C837.631348,233.380707 836.742798,231.835571 835.178894,230.231873 
M580.003906,255.505997 
	C580.003906,250.885635 580.003906,246.265274 580.003906,241.155136 
	C585.854309,241.155136 591.256714,241.155136 596.636597,241.155136 
	C596.636597,237.262833 596.636597,233.884644 596.636597,230.520508 
	C580.884399,230.520508 565.488159,230.520508 550.052368,230.520508 
	C550.052368,234.198807 550.052368,237.575500 550.052368,241.414978 
	C555.660400,241.414978 560.914612,241.414978 566.588867,241.414978 
	C566.588867,257.821167 566.588867,273.759338 566.588867,289.709473 
	C571.277161,289.709473 575.517578,289.709473 580.003906,289.709473 
	C580.003906,278.444397 580.003906,267.474396 580.003906,255.505997 
M963.005554,232.762573 
	C961.797363,231.918335 960.606323,230.372635 959.378174,230.342514 
	C950.723206,230.130219 942.060608,230.229645 933.400452,230.229584 
	C927.621887,230.229538 921.843262,230.229584 915.955322,230.229584 
	C915.955322,234.131256 915.955322,237.404556 915.955322,241.312225 
	C921.506409,241.312225 926.878723,241.312225 932.665283,241.312225 
	C932.665283,257.874878 932.665283,273.808167 932.665283,289.682617 
	C937.349548,289.682617 941.590881,289.682617 946.187439,289.682617 
	C946.187439,273.442841 946.187439,257.524445 946.187439,241.111069 
	C951.930054,241.111069 957.327820,241.111069 963.007324,241.111069 
	C963.007324,238.309067 963.007324,236.004944 963.005554,232.762573 
M885.098938,316.424683 
	C884.809265,317.660767 884.271179,318.896118 884.267395,320.133087 
	C884.213013,337.790253 884.223694,355.447693 884.251099,373.105011 
	C884.252563,374.022064 884.544006,374.938690 884.699951,375.852814 
	C886.974487,375.852814 888.945007,375.852814 891.264526,375.852814 
	C891.264526,367.576508 891.264526,359.460968 891.264526,351.424286 
	C899.788513,349.648682 903.469543,351.015778 907.697693,357.643311 
	C910.379395,361.846741 913.198547,366.026337 915.288208,370.526703 
	C917.652466,375.618469 921.131653,377.134583 927.018066,375.446991 
	C920.854431,366.114288 914.817017,356.972687 908.802795,347.866180 
	C908.729370,347.904266 909.308838,347.578918 909.908569,347.296509 
	C917.895935,343.535431 921.130981,337.769165 920.012329,329.272888 
	C919.096558,322.317383 913.946533,317.447693 905.456543,316.620270 
	C899.018188,315.992706 892.486023,316.327240 885.098938,316.424683 
M932.476929,376.013550 
	C935.937134,376.781952 937.009705,374.639923 937.905579,371.867096 
	C939.231384,367.763763 939.742371,362.128967 942.647156,360.148590 
	C945.764832,358.023102 951.249390,359.251007 955.702271,359.225342 
	C967.513855,359.157257 967.858643,359.089264 971.600159,370.495880 
	C973.364441,375.874481 976.087830,377.088745 981.353882,375.420898 
	C973.998535,356.308411 966.734009,337.244507 959.190125,318.291748 
	C958.734924,317.148041 956.033936,316.327667 954.418335,316.390808 
	C953.042480,316.444519 951.020813,317.691406 950.498962,318.924347 
	C947.717468,325.496155 945.333557,332.235626 942.782349,338.905731 
	C938.111877,351.116516 933.420593,363.319366 928.632324,375.800934 
	C929.983337,375.896973 930.801086,375.955109 932.476929,376.013550 
M748.867981,333.558289 
	C747.201355,329.219940 745.502258,324.893677 743.880249,320.538666 
	C742.924866,317.973358 742.068115,316.079529 738.454590,316.027374 
	C734.614563,315.971893 734.169189,318.344971 733.198730,320.743469 
	C732.514221,322.435486 731.888916,324.151428 731.238953,325.857391 
	C724.924072,342.431671 718.609497,359.006042 712.219971,375.776917 
	C715.025330,375.776917 717.454712,375.776917 719.927917,375.776917 
	C720.444946,374.333527 720.890320,373.084717 721.339478,371.837250 
	C725.888977,359.202179 725.889160,359.202240 739.266357,359.202240 
	C750.993164,359.202240 751.276489,359.107330 754.945801,370.058929 
	C756.705627,375.311523 759.267761,377.465881 764.911682,375.480804 
	C759.661743,361.830475 754.368652,348.068115 748.867981,333.558289 
M774.051880,342.500000 
	C774.051880,353.596832 774.051880,364.693695 774.051880,375.688904 
	C776.730469,375.688904 778.795410,375.688904 781.287964,375.688904 
	C781.287964,366.179901 781.287964,356.991486 781.287964,346.930115 
	C788.761536,355.778778 795.928040,363.658661 802.351196,372.103912 
	C806.000549,376.902100 810.073792,376.251404 815.163208,375.545319 
	C806.011658,365.121979 797.251770,355.144745 788.301880,344.951050 
	C796.771729,335.426361 804.965454,326.212280 813.298157,316.841827 
	C807.307983,314.908752 803.954346,317.213440 800.744141,321.250397 
	C794.699036,328.852264 788.158447,336.060181 780.900940,344.505890 
	C780.900940,334.210968 780.900940,325.337616 780.900940,316.628143 
	C778.325623,316.628143 776.277771,316.628143 774.051880,316.628143 
	C774.051880,325.190857 774.051880,333.345428 774.051880,342.500000 
M424.309631,250.500229 
	C424.309631,263.570740 424.309631,276.641235 424.309631,289.723633 
	C429.136383,289.723633 433.368927,289.723633 437.529724,289.723633 
	C437.529724,269.776428 437.529724,250.130356 437.529724,230.461426 
	C433.049683,230.461426 428.962585,230.461426 424.309723,230.461426 
	C424.309723,236.972092 424.309723,243.236313 424.309631,250.500229 
M859.768188,243.513489 
	C859.768188,239.241882 859.768188,234.970291 859.768188,230.515594 
	C854.981384,230.515594 850.768860,230.515594 846.468811,230.515594 
	C846.468811,250.486801 846.468811,270.146057 846.468811,289.662933 
	C851.046021,289.662933 855.272461,289.662933 859.768127,289.662933 
	C859.768127,274.373077 859.768127,259.440735 859.768188,243.513489 
M715.965881,318.595612 
	C715.367371,317.804047 714.885742,316.494812 714.146118,316.327759 
	C712.561279,315.969696 710.843201,316.193573 709.179688,316.193207 
	C697.768372,316.190735 686.357117,316.191895 674.898438,316.191895 
	C674.898438,318.716217 674.898438,320.613403 674.898438,322.974365 
	C680.677551,322.974365 686.097595,322.974365 691.834717,322.974365 
	C691.834717,340.865601 691.834717,358.291626 691.834717,375.761169 
	C694.258057,375.761169 696.344421,375.761169 699.008667,375.761169 
	C699.008667,357.975037 699.008667,340.451447 699.008667,322.773102 
	C703.909851,322.773102 708.234558,322.655792 712.548767,322.817749 
	C715.074951,322.912628 716.376465,322.195160 715.965881,318.595612 
M1050.387085,362.487488 
	C1050.387085,366.914124 1050.387085,371.340729 1050.387085,375.715454 
	C1053.084839,375.715454 1055.151367,375.715454 1057.098145,375.715454 
	C1057.098145,355.736816 1057.098145,336.081726 1057.098145,316.458618 
	C1054.739624,316.458618 1052.812500,316.458618 1050.387207,316.458618 
	C1050.387207,331.648560 1050.387207,346.570404 1050.387085,362.487488 
M1346.279419,286.739044 
	C1345.445557,291.224945 1344.611572,295.710846 1343.689209,300.672729 
	C1346.556152,300.672729 1348.725830,300.886963 1350.823364,300.590515 
	C1352.037842,300.418884 1353.869873,299.667328 1354.168823,298.762207 
	C1356.219482,292.553162 1357.938110,286.234467 1359.792725,279.851257 
	C1347.879150,278.680359 1347.879150,278.680359 1346.279419,286.739044 
M170.494049,459.982025 
	C166.983063,458.154602 162.939316,457.767212 159.533234,455.330353 
	C158.120819,454.319855 155.082977,455.581238 152.784317,455.809479 
	C153.054733,458.055450 153.131775,460.349213 153.670410,462.528900 
	C153.978180,463.774384 155.037659,464.834045 155.758698,465.977386 
	C155.432220,466.366455 155.105743,466.755524 154.779266,467.144592 
	C152.921082,466.254395 151.062881,465.364166 148.046097,463.918884 
	C148.698776,465.765167 148.892090,467.792908 149.570953,467.971130 
	C152.244354,468.672974 155.091293,469.067078 157.819107,468.858734 
	C158.270935,468.824219 158.984650,465.102173 158.603851,463.288605 
	C158.225220,461.485352 156.619766,459.939728 155.552292,458.281128 
	C155.900146,457.912842 156.248001,457.544525 156.595856,457.176239 
	C159.987488,458.681396 163.379105,460.186554 166.985443,461.787018 
	C165.873642,464.540558 164.948013,466.819855 164.032532,469.103180 
	C162.313568,473.390442 162.316040,473.391418 165.789169,474.301819 
	C167.311951,470.697876 168.839355,467.082947 170.295715,463.636200 
	C172.058243,463.856140 173.437622,464.028259 174.817017,464.200378 
	C175.033218,463.767456 175.249420,463.334534 175.465637,462.901581 
	C174.058533,462.015350 172.651428,461.129089 170.494049,459.982025 
M100.705627,440.189911 
	C103.936317,440.384491 105.670540,439.014954 105.804543,435.633179 
	C105.838127,434.785614 106.390152,433.640686 107.072197,433.190948 
	C110.289116,431.069824 109.656769,428.845703 107.287872,426.756134 
	C105.587814,425.256561 103.570923,424.116180 101.416870,422.622437 
	C98.441566,427.134583 95.668243,431.340454 92.685776,435.863495 
	C95.381630,437.424744 97.650406,438.738647 100.705627,440.189911 
M50.792152,398.449829 
	C51.913052,399.070801 53.086147,400.296021 54.145485,400.204498 
	C58.009964,399.870697 59.500111,401.250275 59.021721,405.161713 
	C58.874489,406.365509 59.726601,407.691528 60.493279,410.159637 
	C63.199871,404.786499 65.319733,400.877136 67.108841,396.821899 
	C67.571877,395.772369 67.470169,393.783752 66.772217,393.100372 
	C66.030838,392.374481 64.085732,392.207336 62.991436,392.632690 
	C59.000286,394.184113 55.144901,396.084778 50.792152,398.449829 
M107.677673,443.916565 
	C111.223503,442.197510 112.965149,443.437347 113.569710,447.215729 
	C113.764313,448.431976 114.852310,449.505280 116.272133,451.885376 
	C117.506073,445.859497 118.528458,441.532288 119.196579,437.151093 
	C119.370613,436.009918 118.772263,434.098083 117.926460,433.631256 
	C117.015129,433.128235 115.104294,433.500977 114.139053,434.197662 
	C110.554169,436.785034 107.178955,439.662872 102.911179,443.084076 
	C104.883430,443.656219 105.979568,443.974213 107.677673,443.916565 
M122.857758,450.701538 
	C124.114845,450.606995 125.444138,450.740204 126.613647,450.369415 
	C128.886414,449.648865 131.767654,449.236908 133.132523,447.625946 
	C135.401581,444.947723 133.120819,442.719269 130.751999,441.183258 
	C129.142471,440.139618 127.360382,439.362122 125.416267,438.339783 
	C122.823936,443.103943 120.476265,447.418457 118.128593,451.733002 
	C118.442200,452.207581 118.755814,452.682129 119.069427,453.156677 
	C120.191368,452.536346 121.313301,451.916046 122.857758,450.701538 
z"/>
<path fill="#251963" opacity="1.000000" stroke="none" 
	d="
M218.759964,131.976685 
	C222.916443,132.148697 227.072601,132.461380 231.229431,132.470306 
	C262.726379,132.537964 294.223450,132.546158 325.720459,132.572601 
	C327.378143,132.573990 329.035828,132.572800 331.354736,132.572800 
	C331.553833,134.803040 331.901001,136.878769 331.900482,138.954391 
	C331.890472,178.281830 333.332794,217.679886 331.477020,256.921570 
	C327.928864,331.949768 293.021210,389.614014 229.762772,429.901398 
	C217.753052,437.550079 204.817688,443.784424 192.111252,450.283905 
	C185.582397,453.623474 178.918686,453.144287 171.960129,450.116608 
	C139.271866,435.893616 107.978508,419.578583 82.545883,393.848267 
	C49.437336,360.352234 30.893250,319.875946 26.122982,273.317719 
	C24.227381,254.816467 24.473356,236.067413 24.289564,217.425812 
	C24.013626,189.438110 24.217760,161.445679 24.217760,132.177841 
	C60.230030,132.177841 95.800293,132.177841 132.153687,132.155396 
	C134.317398,132.204483 135.697952,132.276016 137.540558,132.354706 
	C144.961548,132.389313 151.920975,132.479568 158.879410,132.431091 
	C173.448471,132.329605 188.016998,132.155060 203.016724,131.983612 
	C208.551788,131.963379 213.655869,131.970032 218.759964,131.976685 
M226.513397,423.030823 
	C249.704636,409.097443 268.533691,390.365662 285.033386,369.208832 
	C300.292542,349.642700 312.328094,328.226776 319.340027,304.309631 
	C323.584747,289.831207 324.770081,275.308502 314.565125,262.447479 
	C311.096069,258.075531 311.676575,254.769653 314.992737,250.753632 
	C320.584137,243.982178 324.984741,236.410095 325.082367,227.345032 
	C325.361908,201.382431 325.388947,175.416840 325.429321,149.452286 
	C325.434418,146.172134 324.926453,142.891174 324.644623,139.469818 
	C278.907410,139.469818 233.535751,139.469818 187.867752,139.469818 
	C186.907913,241.358002 185.951187,342.914703 184.989304,445.017639 
	C200.272079,440.024994 213.072250,431.690399 226.513397,423.030823 
M180.106094,438.408051 
	C180.106094,371.160156 180.106094,303.912262 180.106094,236.647781 
	C155.543091,236.647781 131.846390,236.647781 106.579056,236.647781 
	C108.934090,251.724838 111.146767,265.890472 113.445969,280.610077 
	C126.022987,280.610077 137.464386,280.610077 149.091293,280.610077 
	C152.841141,319.819519 156.522079,358.308716 160.321609,398.037720 
	C156.126465,395.773956 152.959000,394.351807 150.103516,392.459045 
	C145.389709,389.334503 140.865067,385.922974 136.282074,382.602936 
	C105.401962,360.232208 85.481926,330.446594 75.946564,293.588806 
	C66.148285,255.714722 66.700935,217.061020 67.132088,178.411880 
	C67.135071,178.144699 67.447960,177.880981 67.794113,177.334854 
	C91.389709,177.334854 115.163040,177.334854 139.360336,177.334854 
	C140.171677,185.734329 140.983276,194.136353 141.815506,202.752167 
	C154.931305,202.752167 167.676453,202.752167 179.947418,202.752167 
	C179.947418,181.560455 179.947418,160.678467 179.947418,139.516449 
	C129.585175,139.516449 80.004295,139.516449 30.112951,139.516449 
	C29.940945,142.054733 29.649889,144.031158 29.697968,145.999298 
	C30.173887,165.481293 30.381227,184.977249 31.300623,204.439224 
	C32.580788,231.538132 33.248920,258.741516 36.278793,285.663849 
	C40.442757,322.663330 56.022846,354.808533 82.803688,381.139069 
	C109.610367,407.495056 141.598633,426.145294 174.828781,442.933350 
	C176.328491,443.691010 178.056717,443.996338 180.107056,444.648712 
	C180.107056,442.360504 180.107056,440.870514 180.106094,438.408051 
z"/>
<path fill="#FB0403" opacity="1.000000" stroke="none" 
	d="
M137.078522,132.347534 
	C135.697952,132.276016 134.317398,132.204483 132.637085,132.068542 
	C130.713898,130.868713 129.119843,129.688324 127.462448,128.604843 
	C110.508736,117.521645 107.999840,99.028008 121.360825,83.209404 
	C122.861275,81.432961 124.551247,79.805710 126.241768,78.202522 
	C134.649841,70.228790 135.391647,68.685310 136.084671,55.651176 
	C139.312317,58.787548 142.171356,60.830360 144.012817,63.559723 
	C145.894562,66.348839 146.777863,69.811607 148.707565,74.441353 
	C157.116409,59.769650 171.659561,56.675247 184.770905,51.265678 
	C201.211182,44.482632 209.307968,31.647221 211.981628,14.702170 
	C212.343399,12.409355 212.662125,10.109751 213.225281,6.290954 
	C216.312546,9.420113 219.043350,11.512728 220.914948,14.203070 
	C228.584213,25.227167 232.453445,37.687210 234.005966,50.932751 
	C234.136536,52.046669 234.206696,53.167671 234.377899,55.115894 
	C240.336105,52.398037 245.827927,49.892918 251.982620,47.085426 
	C251.851059,48.898632 252.063019,50.078705 251.653549,50.974827 
	C248.267548,58.385010 250.007538,65.290817 253.605438,72.001068 
	C259.735260,83.433517 261.727722,95.302567 256.511932,107.517700 
	C249.784729,123.272499 237.997162,131.888092 219.593048,131.802994 
	C213.655869,131.970032 208.551788,131.963379 202.676178,131.677460 
	C198.242798,131.327255 194.564255,130.996384 190.921921,131.230072 
	C174.649139,132.274094 163.110214,118.970879 158.868851,108.458061 
	C154.889389,98.594414 157.784821,89.431953 166.766678,83.750069 
	C170.091736,81.646637 173.878387,80.170135 177.604950,78.824127 
	C187.265549,75.334785 196.205048,70.731186 203.398880,63.217918 
	C205.081055,61.461029 206.637863,59.584114 208.889511,57.043510 
	C210.205093,61.073494 211.171585,64.034126 212.103653,67.284424 
	C212.351959,67.898682 212.634705,68.223274 212.917435,68.547874 
	C213.093643,68.023117 213.269852,67.498360 213.601013,66.550964 
	C214.189529,60.106956 214.294159,54.188656 208.396362,49.257366 
	C203.215454,60.998318 192.934494,65.740028 182.496841,70.327934 
	C178.393738,72.131462 174.258026,73.942413 170.399246,76.198273 
	C166.114243,78.703300 161.769516,81.318169 158.091339,84.602539 
	C151.593277,90.404884 148.729477,97.751694 150.715454,106.618538 
	C151.449997,109.898155 151.817184,113.260056 152.386368,116.798546 
	C141.320938,114.927711 138.089264,111.827141 135.866928,101.648811 
	C135.517029,100.046303 134.914154,98.499039 134.304611,96.617737 
	C133.764191,96.538475 133.347427,96.767723 132.632172,97.212021 
	C131.638992,102.570946 129.738358,107.913055 130.543411,112.810402 
	C131.643097,119.500092 134.802246,125.851250 137.078522,132.347534 
M221.777344,71.296288 
	C216.376312,78.004753 214.882812,81.647659 215.601120,86.864143 
	C223.023438,79.501625 228.670227,70.251732 238.785172,66.905548 
	C241.798630,72.701790 244.530350,77.983215 247.287445,83.251366 
	C249.871689,88.189255 251.744339,93.194069 250.077728,98.944107 
	C249.574936,100.678787 249.815903,102.629036 249.716171,104.480545 
	C255.724640,95.817184 255.126282,87.028488 250.807953,78.208801 
	C247.661819,71.783165 244.461548,65.384026 241.057617,58.513317 
	C233.952332,59.990932 227.808441,64.905128 221.777344,71.296288 
z"/>
<path fill="#2A1E66" opacity="1.000000" stroke="none" 
	d="
M1296.838135,274.029083 
	C1296.838135,279.491516 1296.838135,284.460358 1296.838135,289.719879 
	C1292.247559,289.719879 1288.009644,289.719879 1283.485107,289.719879 
	C1283.485107,270.075470 1283.485107,250.495377 1283.485107,230.562210 
	C1287.791626,230.562210 1292.010132,230.562210 1296.662109,230.562210 
	C1296.662109,238.254028 1296.662109,245.843979 1296.662109,253.739456 
	C1304.979980,253.739456 1312.875244,253.739456 1321.227783,253.739456 
	C1321.227783,246.072556 1321.227783,238.489288 1321.227783,230.562485 
	C1325.893921,230.562485 1330.111938,230.562485 1334.632202,230.562485 
	C1334.632202,250.227905 1334.632202,269.805023 1334.632202,289.701294 
	C1330.407715,289.701294 1326.161377,289.701294 1321.465088,289.701294 
	C1321.465088,281.994873 1321.465088,274.231598 1321.465088,266.138977 
	C1313.141235,266.138977 1305.254883,266.138977 1296.838135,266.138977 
	C1296.838135,268.642242 1296.838135,271.088898 1296.838135,274.029083 
z"/>
<path fill="#2A1E66" opacity="1.000000" stroke="none" 
	d="
M1058.627075,230.212219 
	C1059.943726,231.443024 1061.502197,232.645172 1061.551270,233.906174 
	C1061.803833,240.383896 1061.668457,246.876755 1061.668457,253.706268 
	C1069.721924,253.706268 1077.615723,253.706268 1085.930908,253.706268 
	C1085.930908,246.197250 1085.930908,238.614624 1085.930908,230.624146 
	C1090.553833,230.624146 1094.779541,230.624146 1099.407227,230.624146 
	C1099.407227,250.167740 1099.407227,269.844818 1099.407227,289.771667 
	C1095.108398,289.771667 1090.871948,289.771667 1086.207275,289.771667 
	C1086.207275,281.864105 1086.207275,274.119843 1086.207275,266.093170 
	C1077.908691,266.093170 1070.034180,266.093170 1061.699707,266.093170 
	C1061.699707,274.008820 1061.699707,281.752441 1061.699707,289.750244 
	C1057.018188,289.750244 1052.791748,289.750244 1048.319824,289.750244 
	C1048.319824,270.031738 1048.319824,250.466873 1048.319824,230.210709 
	C1051.643799,230.210709 1054.908325,230.210709 1058.627075,230.212219 
z"/>
<path fill="#241862" opacity="1.000000" stroke="none" 
	d="
M669.473755,283.423889 
	C664.445740,285.765442 659.812317,289.055695 654.857910,289.644135 
	C646.502136,290.636536 637.942871,289.916229 629.169617,289.916229 
	C629.169617,270.144714 629.169617,250.563354 629.169617,229.727097 
	C639.514832,230.315781 649.931885,230.435379 660.212891,231.679535 
	C665.940186,232.372620 670.240601,236.176041 670.992554,242.544556 
	C671.753906,248.994003 668.629822,253.356003 663.173584,256.342255 
	C662.461548,256.731964 661.761169,257.142975 660.995117,257.578369 
	C674.396484,264.122070 677.170227,272.337158 669.473755,283.423889 
M650.147522,280.051880 
	C656.637329,279.254761 659.435181,276.740234 659.301636,271.824707 
	C659.176636,267.223816 656.074829,264.665344 649.975464,264.307434 
	C647.537598,264.164398 645.084290,264.283905 642.457764,264.283905 
	C642.457764,269.806244 642.457764,274.831970 642.457764,280.060303 
	C644.945496,280.060303 647.097107,280.060303 650.147522,280.051880 
M642.727600,253.999405 
	C645.705872,253.973923 648.771179,254.383850 651.639771,253.810135 
	C655.046570,253.128815 656.980957,250.596710 657.002747,246.932632 
	C657.024170,243.334793 655.017273,241.310715 651.670227,240.790985 
	C648.643127,240.320969 645.549133,240.281342 642.200562,240.030670 
	C642.200562,244.933563 642.200562,249.073853 642.727600,253.999405 
z"/>
<path fill="#281C65" opacity="1.000000" stroke="none" 
	d="
M493.857452,278.088043 
	C496.335144,282.018738 498.631012,285.636780 501.407593,290.012390 
	C496.477783,290.012390 492.240509,290.220856 488.046265,289.887726 
	C486.756500,289.785278 485.204285,288.449951 484.424530,287.253906 
	C481.158508,282.244080 478.174530,277.051483 475.019073,271.968109 
	C472.835052,268.449707 469.923737,266.258606 465.016418,267.427643 
	C465.016418,274.688446 465.016418,282.111786 465.016418,289.768066 
	C460.333710,289.768066 456.107391,289.768066 451.432617,289.768066 
	C451.432617,271.429047 451.427612,253.313538 451.442047,235.198044 
	C451.443207,233.731339 451.577606,232.264709 451.632965,231.144470 
	C461.824463,231.144470 471.771729,230.577591 481.614075,231.349121 
	C487.894562,231.841431 492.782043,235.780182 494.001221,242.600479 
	C495.310638,249.925491 493.355072,256.145905 486.935608,260.467255 
	C485.435303,261.477234 483.755463,262.220520 482.730011,262.776520 
	C486.391815,267.794342 490.033722,272.784882 493.857452,278.088043 
M464.944336,242.862198 
	C464.944336,247.459946 464.944336,252.057678 464.944336,256.592529 
	C473.743896,257.510254 477.946716,256.180969 479.558105,251.658234 
	C480.769470,248.258148 480.846252,244.727585 477.574402,242.149185 
	C474.557526,239.771729 467.710419,239.720459 464.944336,242.862198 
z"/>
<path fill="#281C65" opacity="1.000000" stroke="none" 
	d="
M1177.355591,290.001129 
	C1176.379272,289.292023 1175.419678,288.595215 1175.416626,287.894287 
	C1175.335083,268.942932 1175.351562,249.991150 1175.351562,230.141708 
	C1186.648193,230.756363 1197.747314,228.692490 1208.575317,232.133118 
	C1214.068848,233.878662 1217.417358,237.805115 1218.120972,243.742554 
	C1218.958252,250.808731 1216.776978,256.535583 1210.753784,260.548859 
	C1209.253174,261.548676 1207.585815,262.298218 1206.926758,262.656433 
	C1213.010620,271.450562 1219.074097,280.215179 1225.848999,290.008240 
	C1220.340576,290.008240 1215.961426,290.228088 1211.630005,289.869629 
	C1210.386963,289.766724 1208.970581,288.194000 1208.168579,286.950317 
	C1204.929321,281.926880 1201.956665,276.732391 1198.771240,271.673096 
	C1196.665527,268.328674 1193.781982,266.327057 1189.079834,267.405334 
	C1189.079834,274.629242 1189.079834,282.029175 1189.079834,290.011536 
	C1185.021240,290.011536 1181.419678,290.011536 1177.355591,290.001129 
M1201.782349,254.251556 
	C1204.614380,251.002319 1205.358032,247.153366 1202.888184,243.746063 
	C1199.431274,238.976852 1194.098145,240.525497 1189.143311,240.411682 
	C1189.143311,246.165955 1189.143311,251.401627 1189.143311,257.933167 
	C1193.501343,256.800751 1197.350952,255.800415 1201.782349,254.251556 
z"/>
<path fill="#241862" opacity="1.000000" stroke="none" 
	d="
M1148.319092,269.922852 
	C1148.407349,256.570740 1148.407349,243.632690 1148.407349,230.466690 
	C1153.432617,230.466690 1157.511108,230.466690 1161.653564,230.466690 
	C1161.653564,244.296356 1162.636230,257.991333 1161.380371,271.477783 
	C1160.096069,285.269775 1151.096924,291.287659 1135.979614,291.010040 
	C1122.630737,290.764893 1115.021729,283.991516 1113.229858,270.643585 
	C1112.943237,268.507416 1112.967407,266.320679 1112.962646,264.157043 
	C1112.938232,253.026978 1112.951294,241.896835 1112.951294,230.500488 
	C1117.449463,230.500488 1121.552734,230.500488 1126.319824,230.500488 
	C1126.319824,237.905502 1126.263062,245.348358 1126.338623,252.789856 
	C1126.394409,258.279755 1126.291748,263.802429 1126.860107,269.247833 
	C1127.544922,275.809387 1130.878174,278.906921 1136.578003,279.278259 
	C1143.193848,279.709229 1146.384644,277.260895 1148.319092,269.922852 
z"/>
<path fill="#261B64" opacity="1.000000" stroke="none" 
	d="
M684.926331,290.011200 
	C682.294495,290.011200 680.136963,290.011200 677.265076,290.011200 
	C678.181885,287.436218 678.931458,285.297211 679.703918,283.166504 
	C685.649841,266.765839 691.677002,250.393860 697.475830,233.941391 
	C698.474487,231.107819 699.742371,230.131424 702.783691,230.138779 
	C714.716980,230.167633 714.729065,230.043381 718.744812,241.381073 
	C724.399048,257.344971 730.033691,273.315826 735.815491,289.676392 
	C730.999146,289.676392 726.466187,289.676392 721.311890,289.676392 
	C720.307007,286.659210 719.438416,283.140961 717.922424,279.928192 
	C717.278259,278.563049 715.308655,277.790405 713.871582,276.855957 
	C713.520142,276.627441 712.893982,276.820709 712.394104,276.821594 
	C707.395630,276.830505 701.451416,275.183624 697.678162,277.338287 
	C694.254333,279.293304 693.194580,285.388153 690.918579,290.011200 
	C689.382202,290.011200 687.391418,290.011200 684.926331,290.011200 
M701.766663,257.245026 
	C700.845215,260.117706 699.923767,262.990417 698.939087,266.060211 
	C704.215027,266.060211 708.764099,266.060211 713.815002,266.060211 
	C711.317688,258.017456 708.946167,250.379944 706.445557,242.326477 
	C704.847290,247.368103 703.404358,251.919952 701.766663,257.245026 
z"/>
<path fill="#241862" opacity="1.000000" stroke="none" 
	d="
M765.374512,269.321838 
	C762.446838,269.349548 759.965942,269.349548 757.053589,269.349548 
	C757.053589,273.087433 757.053650,276.390930 757.053650,279.694458 
	C757.053650,282.984467 757.053589,286.274475 757.053589,289.778717 
	C752.574585,289.778717 748.486267,289.778717 744.072510,289.778717 
	C744.072510,270.057404 744.072510,250.383698 744.072510,230.638763 
	C752.736572,230.638763 761.228638,230.047516 769.604553,230.781662 
	C781.255249,231.802856 786.782227,237.760956 787.083252,248.007065 
	C787.402527,258.874237 781.120728,266.688934 770.287903,268.823486 
	C768.824890,269.111755 767.311401,269.143524 765.374512,269.321838 
M772.229919,245.631927 
	C768.748962,239.157501 762.847900,241.001297 757.379333,240.852753 
	C757.379333,247.215622 757.379333,253.110764 757.379333,258.974701 
	C770.575684,259.726105 774.039490,256.781982 772.229919,245.631927 
z"/>
<path fill="#261A64" opacity="1.000000" stroke="none" 
	d="
M905.242676,286.306854 
	C894.743347,292.717346 883.997498,291.929749 873.159424,288.760529 
	C872.098083,288.450226 870.810425,286.832336 870.705933,285.720093 
	C870.385254,282.306885 870.589172,278.844330 870.589172,274.706085 
	C876.875549,278.955658 883.076233,281.400055 889.873108,279.999176 
	C892.415039,279.475342 896.031006,277.384155 896.480652,275.400787 
	C896.927063,273.431366 894.523438,270.001526 892.444031,268.464264 
	C889.302551,266.141846 885.329224,264.963867 881.760498,263.196320 
	C873.118652,258.916107 869.234741,252.505493 870.427673,244.638809 
	C871.645264,236.609650 877.503845,231.053482 887.034729,230.035294 
	C892.590881,229.441696 898.286377,229.952454 903.906311,230.228149 
	C907.391785,230.399139 909.271057,232.176437 908.692322,236.076752 
	C908.355042,238.349808 908.630859,240.713837 908.630859,243.031723 
	C904.302002,241.987061 900.213074,240.776001 896.038025,240.088486 
	C893.984924,239.750381 891.503784,239.835510 889.703369,240.720261 
	C887.700012,241.704788 885.284241,243.602081 884.861206,245.505096 
	C884.512756,247.072693 886.367188,249.925690 888.026611,250.984406 
	C891.919312,253.467880 896.312500,255.154633 900.444519,257.277954 
	C907.757568,261.035919 912.416626,266.739227 910.855896,275.268677 
	C910.160767,279.067932 907.367065,282.483154 905.242676,286.306854 
z"/>
<path fill="#261A64" opacity="1.000000" stroke="none" 
	d="
M520.942383,280.371338 
	C522.713013,280.236084 524.274353,280.498047 525.309448,279.879486 
	C527.318176,278.679108 530.138000,277.236542 530.552246,275.421875 
	C530.958557,273.642303 529.336243,270.471863 527.646057,269.329865 
	C523.837830,266.756805 519.413147,265.107666 515.282654,262.997681 
	C506.261414,258.389313 502.657867,251.391251 504.809296,242.729736 
	C506.707550,235.087326 512.412598,231.332062 519.463989,230.302719 
	C525.453247,229.428452 531.681274,229.999084 537.792664,230.227173 
	C541.216980,230.354965 543.221497,232.069641 542.623535,236.017853 
	C542.279846,238.287384 542.561279,240.651581 542.561279,243.388702 
	C539.646301,242.423264 537.098450,241.183029 534.426636,240.794083 
	C531.028137,240.299362 527.385315,239.867004 524.124756,240.614990 
	C521.994263,241.103714 519.313232,243.483017 518.827698,245.487564 
	C518.442566,247.077591 520.568787,250.089096 522.366638,251.231171 
	C526.542603,253.884079 531.272827,255.644775 535.632935,258.032776 
	C541.014343,260.980194 544.717712,265.224640 545.053589,271.739349 
	C545.533386,281.044159 541.128967,288.161346 531.999695,289.577179 
	C524.616699,290.722137 516.883057,289.822449 509.319458,289.494598 
	C505.562897,289.331787 503.921082,287.014435 504.447906,283.077911 
	C504.773529,280.644623 504.508301,278.132233 504.508301,276.046692 
	C509.929932,277.513092 515.212646,278.941895 520.942383,280.371338 
z"/>
<path fill="#271B64" opacity="1.000000" stroke="none" 
	d="
M994.024292,275.859558 
	C986.011475,255.663452 994.828186,235.430206 1013.543213,230.412643 
	C1020.739807,228.483215 1029.645508,228.925186 1037.334106,231.668427 
	C1037.334106,235.539139 1037.334106,239.500702 1037.334106,243.831268 
	C1026.508545,240.120071 1015.722351,237.876312 1008.060669,249.429306 
	C1003.583130,256.180878 1004.116516,267.126770 1009.130371,272.985748 
	C1017.264221,282.490601 1027.182373,279.727478 1037.560425,276.086395 
	C1037.560425,279.640778 1037.694580,282.911591 1037.473022,286.158173 
	C1037.412354,287.048645 1036.471680,288.212402 1035.622559,288.665955 
	C1022.140442,295.866241 1002.020508,289.786560 994.024292,275.859558 
z"/>
<path fill="#271B64" opacity="1.000000" stroke="none" 
	d="
M1244.387207,247.549835 
	C1240.031128,253.726044 1239.586182,260.266602 1241.232422,266.942047 
	C1243.661621,276.791962 1253.730103,281.569489 1265.299194,278.557281 
	C1267.668335,277.940430 1269.948853,276.982330 1272.777588,276.006531 
	C1272.777588,279.300323 1273.077759,282.276123 1272.648804,285.142761 
	C1272.440063,286.537750 1271.115723,288.486237 1269.874878,288.890900 
	C1260.953613,291.800262 1251.616455,292.673828 1243.086182,288.637878 
	C1238.121704,286.289093 1233.058350,282.146179 1230.311279,277.474579 
	C1220.460083,260.720734 1227.064331,230.341522 1257.165161,229.239731 
	C1257.995605,229.209335 1258.829224,229.224152 1259.660034,229.254028 
	C1272.844604,229.728104 1273.380127,230.319305 1272.558594,243.859695 
	C1262.674561,240.393738 1252.896973,238.261887 1244.387207,247.549835 
z"/>
<path fill="#241862" opacity="1.000000" stroke="none" 
	d="
M379.986542,270.999512 
	C379.986542,257.221802 379.986542,243.944000 379.986542,230.451202 
	C391.592438,230.451202 402.685150,230.451202 414.066223,230.451202 
	C414.066223,233.996384 414.066223,237.416916 414.066223,241.231140 
	C407.263977,241.231140 400.643646,241.231140 393.688873,241.231140 
	C393.688873,246.196411 393.688873,250.780365 393.688873,255.904755 
	C399.865112,255.904755 406.102631,255.904755 412.557495,255.904755 
	C412.557495,259.695374 412.557495,262.955688 412.557495,266.786774 
	C406.236511,266.786774 400.002991,266.786774 393.361603,266.786774 
	C393.361603,274.780548 393.361603,282.214020 393.361603,289.822998 
	C388.829834,289.822998 384.715179,289.822998 379.986542,289.822998 
	C379.986542,283.695709 379.986542,277.597565 379.986542,270.999512 
z"/>
<path fill="#2B2067" opacity="1.000000" stroke="none" 
	d="
M990.569092,371.700226 
	C990.569092,353.120453 990.569092,335.008301 990.569092,316.337494 
	C1001.307251,316.316895 1011.733765,315.143066 1021.862183,318.507294 
	C1029.844116,321.158569 1034.931274,326.650360 1037.195068,334.839233 
	C1043.512817,357.692108 1029.918945,375.875885 1006.317688,376.017059 
	C1001.333862,376.046875 996.349792,376.021393 990.987854,376.021393 
	C990.837769,374.640442 990.703430,373.404144 990.569092,371.700226 
M1005.445557,322.757385 
	C1002.998962,322.757385 1000.552429,322.757385 997.958618,322.757385 
	C997.958618,338.623077 997.958618,353.979889 997.958618,370.014557 
	C1003.583252,369.611359 1008.933899,369.723969 1014.081482,368.756470 
	C1025.128174,366.680267 1031.140991,358.011658 1031.071289,345.203156 
	C1031.003418,332.735626 1025.576660,325.543243 1014.350098,323.348816 
	C1011.763672,322.843262 1009.059509,322.939789 1005.445557,322.757385 
z"/>
<path fill="#291D66" opacity="1.000000" stroke="none" 
	d="
M867.220581,365.136749 
	C859.203918,375.670319 847.633057,379.457245 835.142212,375.880096 
	C824.563965,372.850677 816.926025,362.861755 816.195007,350.378876 
	C815.935730,345.952484 816.238220,341.361389 817.139526,337.023132 
	C820.073425,322.900452 832.290833,314.132355 846.824402,315.287750 
	C860.965515,316.411926 870.957825,326.515533 872.059875,340.818726 
	C872.709106,349.244751 872.086670,357.429260 867.220581,365.136749 
M863.428772,335.389008 
	C859.817383,326.000000 854.127014,321.858002 844.736755,321.783051 
	C835.707275,321.710999 828.602844,326.323883 825.411865,334.821320 
	C822.433289,342.752869 822.430481,350.821289 825.834290,358.664490 
	C829.452942,367.002838 837.127441,371.509613 845.783081,370.667328 
	C855.187866,369.752136 862.262756,364.410034 863.725342,355.381409 
	C864.738220,349.129120 863.805054,342.561584 863.428772,335.389008 
z"/>
<path fill="#241862" opacity="1.000000" stroke="none" 
	d="
M835.646973,230.237793 
	C836.742798,231.835571 837.631348,233.380707 837.927124,235.032013 
	C838.242737,236.793823 837.998291,238.655975 837.998291,240.983887 
	C832.432312,240.983887 827.042725,240.983887 821.285645,240.983887 
	C821.285645,257.407104 821.285645,273.329407 821.285645,289.628265 
	C816.695068,289.628265 812.462585,289.628265 807.592285,289.628265 
	C807.592285,273.752747 807.592285,257.709381 807.592285,241.257477 
	C801.691040,241.257477 796.410950,241.257477 790.976440,241.257477 
	C790.976440,237.403381 790.976440,233.974976 790.976440,230.231873 
	C805.896179,230.231873 820.537537,230.231873 835.646973,230.237793 
z"/>
<path fill="#241862" opacity="1.000000" stroke="none" 
	d="
M580.003906,256.005188 
	C580.003906,267.474396 580.003906,278.444397 580.003906,289.709473 
	C575.517578,289.709473 571.277161,289.709473 566.588867,289.709473 
	C566.588867,273.759338 566.588867,257.821167 566.588867,241.414978 
	C560.914612,241.414978 555.660400,241.414978 550.052368,241.414978 
	C550.052368,237.575500 550.052368,234.198807 550.052368,230.520508 
	C565.488159,230.520508 580.884399,230.520508 596.636597,230.520508 
	C596.636597,233.884644 596.636597,237.262833 596.636597,241.155136 
	C591.256714,241.155136 585.854309,241.155136 580.003906,241.155136 
	C580.003906,246.265274 580.003906,250.885635 580.003906,256.005188 
z"/>
<path fill="#241862" opacity="1.000000" stroke="none" 
	d="
M963.006470,233.231689 
	C963.007324,236.004944 963.007324,238.309067 963.007324,241.111069 
	C957.327820,241.111069 951.930054,241.111069 946.187439,241.111069 
	C946.187439,257.524445 946.187439,273.442841 946.187439,289.682617 
	C941.590881,289.682617 937.349548,289.682617 932.665283,289.682617 
	C932.665283,273.808167 932.665283,257.874878 932.665283,241.312225 
	C926.878723,241.312225 921.506409,241.312225 915.955322,241.312225 
	C915.955322,237.404556 915.955322,234.131256 915.955322,230.229584 
	C921.843262,230.229584 927.621887,230.229538 933.400452,230.229584 
	C942.060608,230.229645 950.723206,230.130219 959.378174,230.342514 
	C960.606323,230.372635 961.797363,231.918335 963.006470,233.231689 
z"/>
<path fill="#2B2067" opacity="1.000000" stroke="none" 
	d="
M885.547241,316.329193 
	C892.486023,316.327240 899.018188,315.992706 905.456543,316.620270 
	C913.946533,317.447693 919.096558,322.317383 920.012329,329.272888 
	C921.130981,337.769165 917.895935,343.535431 909.908569,347.296509 
	C909.308838,347.578918 908.729370,347.904266 908.802795,347.866180 
	C914.817017,356.972687 920.854431,366.114288 927.018066,375.446991 
	C921.131653,377.134583 917.652466,375.618469 915.288208,370.526703 
	C913.198547,366.026337 910.379395,361.846741 907.697693,357.643311 
	C903.469543,351.015778 899.788513,349.648682 891.264526,351.424286 
	C891.264526,359.460968 891.264526,367.576508 891.264526,375.852814 
	C888.945007,375.852814 886.974487,375.852814 884.699951,375.852814 
	C884.544006,374.938690 884.252563,374.022064 884.251099,373.105011 
	C884.223694,355.447693 884.213013,337.790253 884.267395,320.133087 
	C884.271179,318.896118 884.809265,317.660767 885.547241,316.329193 
M896.556885,344.180695 
	C898.881104,344.119629 901.234131,344.268921 903.523804,343.955505 
	C908.956848,343.211823 912.695862,338.871155 912.922180,333.350586 
	C913.135010,328.159058 910.303345,323.882477 905.282654,323.239471 
	C900.790649,322.664215 896.166748,323.118408 891.505981,323.118408 
	C891.505981,330.214355 891.505981,336.953461 891.505981,343.917969 
	C893.033936,344.015656 894.324463,344.098145 896.556885,344.180695 
z"/>
<path fill="#281C65" opacity="1.000000" stroke="none" 
	d="
M932.047852,376.013397 
	C930.801086,375.955109 929.983337,375.896973 928.632324,375.800934 
	C933.420593,363.319366 938.111877,351.116516 942.782349,338.905731 
	C945.333557,332.235626 947.717468,325.496155 950.498962,318.924347 
	C951.020813,317.691406 953.042480,316.444519 954.418335,316.390808 
	C956.033936,316.327667 958.734924,317.148041 959.190125,318.291748 
	C966.734009,337.244507 973.998535,356.308411 981.353882,375.420898 
	C976.087830,377.088745 973.364441,375.874481 971.600159,370.495880 
	C967.858643,359.089264 967.513855,359.157257 955.702271,359.225342 
	C951.249390,359.251007 945.764832,358.023102 942.647156,360.148590 
	C939.742371,362.128967 939.231384,367.763763 937.905579,371.867096 
	C937.009705,374.639923 935.937134,376.781952 932.047852,376.013397 
M948.837524,352.995728 
	C954.114014,352.995728 959.390503,352.995728 965.222229,352.995728 
	C961.725464,343.505432 958.411133,334.510284 954.815613,324.751984 
	C951.240356,334.716583 948.032776,343.656342 944.682007,352.995300 
	C946.277283,352.995300 947.101440,352.995300 948.837524,352.995728 
z"/>
<path fill="#281C65" opacity="1.000000" stroke="none" 
	d="
M748.971802,333.932007 
	C754.368652,348.068115 759.661743,361.830475 764.911682,375.480804 
	C759.267761,377.465881 756.705627,375.311523 754.945801,370.058929 
	C751.276489,359.107330 750.993164,359.202240 739.266357,359.202240 
	C725.889160,359.202240 725.888977,359.202179 721.339478,371.837250 
	C720.890320,373.084717 720.444946,374.333527 719.927917,375.776917 
	C717.454712,375.776917 715.025330,375.776917 712.219971,375.776917 
	C718.609497,359.006042 724.924072,342.431671 731.238953,325.857391 
	C731.888916,324.151428 732.514221,322.435486 733.198730,320.743469 
	C734.169189,318.344971 734.614563,315.971893 738.454590,316.027374 
	C742.068115,316.079529 742.924866,317.973358 743.880249,320.538666 
	C745.502258,324.893677 747.201355,329.219940 748.971802,333.932007 
M737.179321,327.990051 
	C734.256958,336.182587 731.334656,344.375153 728.303894,352.871582 
	C735.362976,352.871582 741.665405,352.871582 748.649963,352.871582 
	C745.206482,343.362274 741.879578,334.174896 738.457947,324.726074 
	C738.042603,325.794159 737.744080,326.561951 737.179321,327.990051 
z"/>
<path fill="#281C65" opacity="1.000000" stroke="none" 
	d="
M774.051880,342.000000 
	C774.051880,333.345428 774.051880,325.190857 774.051880,316.628143 
	C776.277771,316.628143 778.325623,316.628143 780.900940,316.628143 
	C780.900940,325.337616 780.900940,334.210968 780.900940,344.505890 
	C788.158447,336.060181 794.699036,328.852264 800.744141,321.250397 
	C803.954346,317.213440 807.307983,314.908752 813.298157,316.841827 
	C804.965454,326.212280 796.771729,335.426361 788.301880,344.951050 
	C797.251770,355.144745 806.011658,365.121979 815.163208,375.545319 
	C810.073792,376.251404 806.000549,376.902100 802.351196,372.103912 
	C795.928040,363.658661 788.761536,355.778778 781.287964,346.930115 
	C781.287964,356.991486 781.287964,366.179901 781.287964,375.688904 
	C778.795410,375.688904 776.730469,375.688904 774.051880,375.688904 
	C774.051880,364.693695 774.051880,353.596832 774.051880,342.000000 
z"/>
<path fill="#2B2067" opacity="1.000000" stroke="none" 
	d="
M424.309692,250.000397 
	C424.309723,243.236313 424.309723,236.972092 424.309723,230.461426 
	C428.962585,230.461426 433.049683,230.461426 437.529724,230.461426 
	C437.529724,250.130356 437.529724,269.776428 437.529724,289.723633 
	C433.368927,289.723633 429.136383,289.723633 424.309631,289.723633 
	C424.309631,276.641235 424.309631,263.570740 424.309692,250.000397 
z"/>
<path fill="#2B2067" opacity="1.000000" stroke="none" 
	d="
M859.768188,244.010941 
	C859.768127,259.440735 859.768127,274.373077 859.768127,289.662933 
	C855.272461,289.662933 851.046021,289.662933 846.468811,289.662933 
	C846.468811,270.146057 846.468811,250.486801 846.468811,230.515594 
	C850.768860,230.515594 854.981384,230.515594 859.768188,230.515594 
	C859.768188,234.970291 859.768188,239.241882 859.768188,244.010941 
z"/>
<path fill="#2F246A" opacity="1.000000" stroke="none" 
	d="
M715.967285,319.042755 
	C716.376465,322.195160 715.074951,322.912628 712.548767,322.817749 
	C708.234558,322.655792 703.909851,322.773102 699.008667,322.773102 
	C699.008667,340.451447 699.008667,357.975037 699.008667,375.761169 
	C696.344421,375.761169 694.258057,375.761169 691.834717,375.761169 
	C691.834717,358.291626 691.834717,340.865601 691.834717,322.974365 
	C686.097595,322.974365 680.677551,322.974365 674.898438,322.974365 
	C674.898438,320.613403 674.898438,318.716217 674.898438,316.191895 
	C686.357117,316.191895 697.768372,316.190735 709.179688,316.193207 
	C710.843201,316.193573 712.561279,315.969696 714.146118,316.327759 
	C714.885742,316.494812 715.367371,317.804047 715.967285,319.042755 
z"/>
<path fill="#32276C" opacity="1.000000" stroke="none" 
	d="
M1050.387207,361.989868 
	C1050.387207,346.570404 1050.387207,331.648560 1050.387207,316.458618 
	C1052.812500,316.458618 1054.739624,316.458618 1057.098145,316.458618 
	C1057.098145,336.081726 1057.098145,355.736816 1057.098145,375.715454 
	C1055.151367,375.715454 1053.084839,375.715454 1050.387085,375.715454 
	C1050.387085,371.340729 1050.387085,366.914124 1050.387207,361.989868 
z"/>
<path fill="#32276C" opacity="1.000000" stroke="none" 
	d="
M281.984375,410.996368 
	C282.726624,412.132568 283.676971,413.189850 284.147034,414.429291 
	C284.540924,415.468079 284.374176,416.719482 284.455688,417.876709 
	C284.046326,418.040680 283.636993,418.204620 283.227631,418.368591 
	C280.159668,415.439270 277.091736,412.509918 273.743988,409.313477 
	C272.473572,410.915710 271.343201,412.341309 270.042297,413.981995 
	C272.101593,416.152710 274.169403,418.078613 275.902344,420.269379 
	C276.732208,421.318512 276.927887,422.869263 277.410828,424.192810 
	C276.111389,423.760803 274.552551,423.644073 273.565552,422.832214 
	C271.398621,421.049713 269.521088,418.915436 267.361359,416.761108 
	C265.941071,417.681000 264.511047,418.607178 262.865356,419.673035 
	C265.616943,423.000732 268.352966,426.309570 271.405365,430.001068 
	C266.697083,434.521362 262.408081,428.853760 257.514679,429.929382 
	C259.407288,432.248505 261.133514,434.363739 263.061615,436.726349 
	C262.297485,437.441925 261.516785,438.173035 260.646179,438.988312 
	C257.561798,435.403931 254.656342,432.027527 251.395645,428.238251 
	C249.683975,430.897461 248.317139,433.020966 246.950302,435.144470 
	C247.365402,435.377563 247.780502,435.610657 248.195602,435.843781 
	C249.943893,435.313171 251.692169,434.782562 253.538330,434.222290 
	C253.923218,437.497040 247.903778,438.120850 252.439697,440.812256 
	C253.381439,441.371033 255.773163,439.486145 257.496643,438.727448 
	C257.807465,439.220032 258.118317,439.712616 258.429169,440.205200 
	C256.166809,442.113434 253.904434,444.021637 251.272949,446.241211 
	C248.340576,442.415100 245.539139,438.759796 242.412994,435.126862 
	C242.088287,435.149200 242.145523,435.190491 242.145523,435.190491 
	C242.704086,434.114441 243.007507,432.729156 243.868073,432.019073 
	C246.680557,429.698395 249.561813,427.390869 252.705139,425.578766 
	C253.829651,424.930481 255.805511,425.562988 257.340637,425.870911 
	C259.414764,426.286896 261.438599,426.953644 265.062469,427.944336 
	C262.501190,424.751526 260.843658,422.685242 258.934235,420.305023 
	C264.092163,415.426880 269.253448,410.545593 274.717621,405.377838 
	C276.786407,407.260925 279.072723,409.341980 281.689484,411.206726 
	C282.019928,410.990387 281.984375,410.996368 281.984375,410.996368 
z"/>
<path fill="#34296E" opacity="1.000000" stroke="none" 
	d="
M242.071930,435.117920 
	C242.807083,439.206116 243.676865,443.309631 244.235107,447.455109 
	C244.394028,448.635254 244.015396,450.506470 243.213409,451.025330 
	C242.392685,451.556244 240.499283,451.200836 239.515732,450.558807 
	C236.897522,448.849915 234.516251,446.778015 231.496643,444.442993 
	C230.689590,444.507782 230.426651,444.980011 230.163727,445.452240 
	C231.844360,448.845856 233.524979,452.239471 235.462051,456.150940 
	C229.851852,459.382568 226.943573,453.237885 221.922058,452.881531 
	C223.265839,455.621185 224.506134,458.149872 225.746429,460.678558 
	C225.589111,461.124756 225.431778,461.570984 225.274445,462.017181 
	C224.156418,461.524811 222.678818,461.325073 221.992264,460.481506 
	C220.365295,458.482483 219.113647,456.177979 217.372925,454.301697 
	C217.035568,454.606445 217.075806,454.683624 217.075806,454.683624 
	C216.960922,452.825104 216.846039,450.966583 216.692810,448.487732 
	C221.146820,444.861328 223.868988,451.805328 228.679016,451.135406 
	C227.690231,448.880554 226.693344,446.607208 225.570602,444.046814 
	C227.573120,442.761932 229.568756,441.481476 231.791840,440.055084 
	C234.397125,442.142120 237.066101,444.280182 239.735092,446.418213 
	C240.027374,446.260162 240.319672,446.102081 240.611954,445.944031 
	C239.862793,443.333496 239.022430,440.744812 238.391464,438.106018 
	C237.818924,435.711609 237.919434,435.687561 241.700729,435.132019 
	C242.145523,435.190491 242.088287,435.149200 242.071930,435.117920 
z"/>
<path fill="#2A1E66" opacity="1.000000" stroke="none" 
	d="
M1346.398560,286.335449 
	C1347.879150,278.680359 1347.879150,278.680359 1359.792725,279.851257 
	C1357.938110,286.234467 1356.219482,292.553162 1354.168823,298.762207 
	C1353.869873,299.667328 1352.037842,300.418884 1350.823364,300.590515 
	C1348.725830,300.886963 1346.556152,300.672729 1343.689209,300.672729 
	C1344.611572,295.710846 1345.445557,291.224945 1346.398560,286.335449 
z"/>
<path fill="#32276C" opacity="1.000000" stroke="none" 
	d="
M170.869186,460.112427 
	C172.651428,461.129089 174.058533,462.015350 175.465637,462.901581 
	C175.249420,463.334534 175.033218,463.767456 174.817017,464.200378 
	C173.437622,464.028259 172.058243,463.856140 170.295715,463.636200 
	C168.839355,467.082947 167.311951,470.697876 165.789169,474.301819 
	C162.316040,473.391418 162.313568,473.390442 164.032532,469.103180 
	C164.948013,466.819855 165.873642,464.540558 166.985443,461.787018 
	C163.379105,460.186554 159.987488,458.681396 156.595856,457.176239 
	C156.248001,457.544525 155.900146,457.912842 155.552292,458.281128 
	C156.619766,459.939728 158.225220,461.485352 158.603851,463.288605 
	C158.984650,465.102173 158.270935,468.824219 157.819107,468.858734 
	C155.091293,469.067078 152.244354,468.672974 149.570953,467.971130 
	C148.892090,467.792908 148.698776,465.765167 148.046097,463.918884 
	C151.062881,465.364166 152.921082,466.254395 154.779266,467.144592 
	C155.105743,466.755524 155.432220,466.366455 155.758698,465.977386 
	C155.037659,464.834045 153.978180,463.774384 153.670410,462.528900 
	C153.131775,460.349213 153.054733,458.055450 152.784317,455.809479 
	C155.082977,455.581238 158.120819,454.319855 159.533234,455.330353 
	C162.939316,457.767212 166.983063,458.154602 170.869186,460.112427 
z"/>
<path fill="#34296E" opacity="1.000000" stroke="none" 
	d="
M291.031555,396.016235 
	C289.784668,394.247589 288.537750,392.478943 286.992249,390.286713 
	C289.734924,385.008575 295.234619,389.875122 299.391602,387.535004 
	C297.317810,385.810333 295.369263,384.189789 293.423309,382.566162 
	C295.279053,379.336426 298.109985,380.695618 307.069336,389.202972 
	C304.026672,394.880798 298.530640,389.546844 294.315033,392.188660 
	C296.505737,394.031250 298.570190,395.767670 301.071228,397.871338 
	C296.307495,401.689606 294.718323,395.105316 291.209961,395.591003 
	C290.981567,395.973785 291.031555,396.016235 291.031555,396.016235 
z"/>
<path fill="#34296E" opacity="1.000000" stroke="none" 
	d="
M100.312408,440.121246 
	C97.650406,438.738647 95.381630,437.424744 92.685776,435.863495 
	C95.668243,431.340454 98.441566,427.134583 101.416870,422.622437 
	C103.570923,424.116180 105.587814,425.256561 107.287872,426.756134 
	C109.656769,428.845703 110.289116,431.069824 107.072197,433.190948 
	C106.390152,433.640686 105.838127,434.785614 105.804543,435.633179 
	C105.670540,439.014954 103.936317,440.384491 100.312408,440.121246 
z"/>
<path fill="#32276C" opacity="1.000000" stroke="none" 
	d="
M75.052277,419.961487 
	C70.505707,419.843842 69.383301,417.625641 70.759712,413.452972 
	C71.350700,411.661377 71.253334,409.642731 71.633125,406.265015 
	C68.654938,409.029266 66.690285,410.852783 64.711395,412.689514 
	C62.435364,409.707428 62.589142,409.465393 72.970604,399.521332 
	C78.522934,402.723267 73.115128,407.691589 74.801643,411.377533 
	C78.217453,412.411682 78.437576,404.829498 83.170532,408.383972 
	C80.102516,412.222717 77.168167,415.894226 74.635849,419.786743 
	C75.037872,420.007721 75.052277,419.961487 75.052277,419.961487 
M74.981606,412.498474 
	C74.772118,412.423553 74.562637,412.348633 74.353149,412.273712 
	C74.423500,412.500031 74.493851,412.726318 74.981606,412.498474 
M71.056900,406.503479 
	C71.246246,406.575409 71.435593,406.647339 71.624939,406.719269 
	C71.564537,406.510925 71.504135,406.302612 71.056900,406.503479 
z"/>
<path fill="#34296E" opacity="1.000000" stroke="none" 
	d="
M290.959717,395.949341 
	C292.187500,398.671417 294.436340,401.403656 294.475983,404.167511 
	C294.555084,409.686859 289.190643,412.081085 282.251740,410.566101 
	C281.984375,410.996368 282.019928,410.990387 282.018158,411.009338 
	C281.812744,410.289673 281.834473,409.336578 281.368805,408.847290 
	C278.414581,405.742676 277.492279,402.314667 279.928589,398.609222 
	C282.500946,394.696838 286.103821,394.065430 290.634949,396.066467 
	C291.031555,396.016235 290.981567,395.973785 290.959717,395.949341 
M287.077148,398.968506 
	C285.401428,399.810547 283.725739,400.652618 282.050018,401.494659 
	C283.199890,403.323761 284.014648,405.600739 285.629150,406.808960 
	C286.553162,407.500458 288.777832,406.454071 290.416901,406.190155 
	C289.959320,404.170746 289.549469,402.138245 289.001678,400.143616 
	C288.898834,399.769135 288.244904,399.546021 287.077148,398.968506 
z"/>
<path fill="#32276C" opacity="1.000000" stroke="none" 
	d="
M46.022079,380.046783 
	C47.572384,379.383209 49.080070,378.573822 50.687035,378.104095 
	C51.881542,377.755005 53.204754,377.846252 54.470627,377.741333 
	C54.550049,378.253998 54.629467,378.766693 54.708885,379.279358 
	C53.396641,380.475616 52.084393,381.671875 50.469345,383.144165 
	C51.769688,384.781006 52.962330,386.282318 53.882637,387.440796 
	C56.572468,387.573364 58.037704,382.081238 60.990437,386.622681 
	C53.733425,394.502411 50.072670,396.590454 46.672966,393.870056 
	C48.385109,392.723236 50.015831,391.630951 51.961365,390.327820 
	C50.314083,388.272583 49.117550,386.779724 48.211739,385.649567 
	C45.424244,385.447357 44.081963,391.074402 40.561539,385.927246 
	C42.591759,384.151428 44.661575,382.340973 46.392220,380.274048 
	C46.053051,380.017578 46.022083,380.046783 46.022079,380.046783 
z"/>
<path fill="#2F246A" opacity="1.000000" stroke="none" 
	d="
M46.068130,380.002045 
	C45.505939,380.038971 44.772133,379.881683 44.376259,380.177185 
	C41.295666,382.476227 38.472950,384.598694 35.503967,379.806366 
	C32.891209,375.589020 33.054508,371.569214 36.558403,368.726501 
	C40.069576,365.877869 44.852028,365.939453 47.717953,369.334686 
	C49.254822,371.155426 52.609421,373.374451 48.664413,376.415192 
	C45.193272,370.001892 42.222057,368.539764 39.024803,371.857574 
	C37.884834,373.040527 38.000866,375.536072 37.835567,377.457550 
	C37.807335,377.785736 39.254921,378.240875 40.020729,378.637360 
	C40.351021,377.997162 40.763390,377.384705 40.991219,376.709930 
	C41.288963,375.828033 41.440720,374.896820 41.655289,373.986816 
	C42.475906,374.655579 43.507771,375.185242 44.063007,376.028687 
	C44.737812,377.053772 45.010880,378.343323 45.739922,379.782593 
	C46.022083,380.046783 46.053051,380.017578 46.068130,380.002045 
z"/>
<path fill="#34296E" opacity="1.000000" stroke="none" 
	d="
M75.014641,420.013123 
	C78.687706,418.072632 82.332443,416.016357 86.112587,414.249908 
	C87.207390,413.738281 89.097382,413.532135 89.883759,414.140839 
	C90.705757,414.777100 91.181175,416.721558 90.862167,417.819244 
	C89.623611,422.081238 88.008797,426.233826 85.226273,430.761383 
	C84.805695,429.414429 84.215187,428.094086 83.999352,426.715057 
	C83.527298,423.699097 82.219261,422.015564 78.888931,422.821472 
	C76.398041,423.424225 76.391975,423.399170 75.172058,420.325195 
	C75.052277,419.961487 75.037872,420.007721 75.014641,420.013123 
z"/>
<path fill="#2F246A" opacity="1.000000" stroke="none" 
	d="
M216.701538,454.524384 
	C217.075806,454.683624 217.035568,454.606445 217.012909,454.568787 
	C217.541000,456.595184 218.547546,458.657135 218.557114,460.723663 
	C218.585861,466.931244 212.198807,469.595337 205.275894,466.638184 
	C204.949570,466.982971 204.992462,466.973480 204.992462,466.973480 
	C204.748230,466.030823 204.646820,465.019989 204.235107,464.157227 
	C202.422699,460.359039 202.097275,456.663055 205.653763,453.786926 
	C209.223389,450.900208 212.943848,450.951752 216.701538,454.524384 
M211.871613,455.414551 
	C210.203140,456.205048 207.089310,457.087402 207.132614,457.769135 
	C207.272003,459.963165 208.288788,462.289490 209.597519,464.112213 
	C210.016510,464.695770 213.559204,464.141541 213.674957,463.643555 
	C214.138870,461.647797 213.899918,459.463043 213.730270,457.363586 
	C213.687836,456.838593 212.934708,456.371033 211.871613,455.414551 
z"/>
<path fill="#34296E" opacity="1.000000" stroke="none" 
	d="
M51.015259,398.151855 
	C55.144901,396.084778 59.000286,394.184113 62.991436,392.632690 
	C64.085732,392.207336 66.030838,392.374481 66.772217,393.100372 
	C67.470169,393.783752 67.571877,395.772369 67.108841,396.821899 
	C65.319733,400.877136 63.199871,404.786499 60.493279,410.159637 
	C59.726601,407.691528 58.874489,406.365509 59.021721,405.161713 
	C59.500111,401.250275 58.009964,399.870697 54.145485,400.204498 
	C53.086147,400.296021 51.913052,399.070801 51.015259,398.151855 
z"/>
<path fill="#34296E" opacity="1.000000" stroke="none" 
	d="
M107.376694,444.104370 
	C105.979568,443.974213 104.883430,443.656219 102.911179,443.084076 
	C107.178955,439.662872 110.554169,436.785034 114.139053,434.197662 
	C115.104294,433.500977 117.015129,433.128235 117.926460,433.631256 
	C118.772263,434.098083 119.370613,436.009918 119.196579,437.151093 
	C118.528458,441.532288 117.506073,445.859497 116.272133,451.885376 
	C114.852310,449.505280 113.764313,448.431976 113.569710,447.215729 
	C112.965149,443.437347 111.223503,442.197510 107.376694,444.104370 
z"/>
<path fill="#34296E" opacity="1.000000" stroke="none" 
	d="
M122.646500,450.998627 
	C121.313301,451.916046 120.191368,452.536346 119.069427,453.156677 
	C118.755814,452.682129 118.442200,452.207581 118.128593,451.733002 
	C120.476265,447.418457 122.823936,443.103943 125.416267,438.339783 
	C127.360382,439.362122 129.142471,440.139618 130.751999,441.183258 
	C133.120819,442.719269 135.401581,444.947723 133.132523,447.625946 
	C131.767654,449.236908 128.886414,449.648865 126.613647,450.369415 
	C125.444138,450.740204 124.114845,450.606995 122.646500,450.998627 
z"/>
<path fill="#34296E" opacity="1.000000" stroke="none" 
	d="
M204.949524,466.958435 
	C205.832916,470.923462 203.125916,472.152313 200.135559,472.801880 
	C196.192764,473.658295 193.304169,472.036743 191.727524,468.303558 
	C190.041397,464.311127 190.543991,460.635895 194.280563,458.181305 
	C196.285797,456.864105 198.915344,454.444489 201.420258,458.591339 
	C200.410629,458.969330 199.717499,459.307709 198.985458,459.489502 
	C195.397736,460.380432 193.844437,462.618744 195.052460,466.144836 
	C196.326447,469.863434 199.081909,470.114868 202.297211,468.582520 
	C203.035522,468.230621 203.808090,467.950653 204.778687,467.305542 
	C204.992462,466.973480 204.949570,466.982971 204.949524,466.958435 
z"/>
<path fill="#34296E" opacity="1.000000" stroke="none" 
	d="
M146.866928,451.018341 
	C145.239609,451.130371 143.612289,451.242401 141.583527,451.382080 
	C139.710388,454.333405 137.561996,457.761475 135.292801,461.107605 
	C135.216568,461.220001 133.920792,460.505341 132.703583,459.954498 
	C134.572113,456.296234 136.339005,452.836975 138.272751,449.050995 
	C137.371536,448.376617 136.373993,447.851807 135.714630,447.049164 
	C135.350342,446.605713 135.379410,445.640656 135.578598,445.022736 
	C135.668152,444.744965 136.773926,444.451477 137.136429,444.658691 
	C140.371841,446.508209 143.544189,448.468018 146.779694,450.730042 
	C146.824265,451.064697 146.866928,451.018341 146.866928,451.018341 
z"/>
<path fill="#32276C" opacity="1.000000" stroke="none" 
	d="
M146.795364,451.077271 
	C150.919128,450.498016 152.156158,451.752136 149.928513,455.696014 
	C148.236465,458.691620 146.885620,461.879517 145.363602,464.972351 
	C145.225754,465.252411 144.946121,465.462738 143.615982,466.972870 
	C143.221191,464.669739 142.507492,463.247467 142.888718,462.239136 
	C144.279617,458.560425 146.035980,455.019867 147.260773,451.222778 
	C146.866928,451.018341 146.824265,451.064697 146.795364,451.077271 
z"/>
<path fill="#FDFDFE" opacity="1.000000" stroke="none" 
	d="
M226.213287,423.232483 
	C213.072250,431.690399 200.272079,440.024994 184.989304,445.017639 
	C185.951187,342.914703 186.907913,241.358002 187.867752,139.469818 
	C233.535751,139.469818 278.907410,139.469818 324.644623,139.469818 
	C324.926453,142.891174 325.434418,146.172134 325.429321,149.452286 
	C325.388947,175.416840 325.361908,201.382431 325.082367,227.345032 
	C324.984741,236.410095 320.584137,243.982178 314.992737,250.753632 
	C311.676575,254.769653 311.096069,258.075531 314.565125,262.447479 
	C324.770081,275.308502 323.584747,289.831207 319.340027,304.309631 
	C312.328094,328.226776 300.292542,349.642700 285.033386,369.208832 
	C268.533691,390.365662 249.704636,409.097443 226.213287,423.232483 
M232.639786,370.139221 
	C235.234863,367.555328 237.866318,365.006836 240.418854,362.381592 
	C253.358917,349.073181 265.238037,334.890778 272.391449,317.581970 
	C274.991211,311.291443 276.567291,304.157562 276.712769,297.367828 
	C276.953064,286.153534 270.039154,279.938965 258.857147,279.812622 
	C246.875946,279.677185 234.890411,279.653717 222.909988,279.817841 
	C214.585373,279.931885 214.778763,280.129303 213.972305,288.250549 
	C211.539673,312.747528 208.934311,337.227356 206.417908,361.716095 
	C205.355057,372.059387 204.346176,382.408264 203.193726,393.946655 
	C214.901474,387.537842 223.741959,379.371002 232.639786,370.139221 
M289.024963,188.501465 
	C289.024963,184.892532 289.024963,181.283600 289.024963,177.468567 
	C266.932526,177.468567 245.053543,177.468567 222.942993,177.468567 
	C221.445877,196.953720 219.971527,216.142487 218.477280,235.590118 
	C222.898773,235.962082 226.697449,236.644272 230.472366,236.531387 
	C241.907990,236.189392 253.490448,236.523514 264.722168,234.742889 
	C276.847565,232.820587 284.315216,224.633377 286.211395,212.200470 
	C287.364594,204.639359 288.067688,197.009598 289.024963,188.501465 
z"/>
<path fill="#FEFEFE" opacity="1.000000" stroke="none" 
	d="
M180.106567,438.894287 
	C180.107056,440.870514 180.107056,442.360504 180.107056,444.648712 
	C178.056717,443.996338 176.328491,443.691010 174.828781,442.933350 
	C141.598633,426.145294 109.610367,407.495056 82.803688,381.139069 
	C56.022846,354.808533 40.442757,322.663330 36.278793,285.663849 
	C33.248920,258.741516 32.580788,231.538132 31.300623,204.439224 
	C30.381227,184.977249 30.173887,165.481293 29.697968,145.999298 
	C29.649889,144.031158 29.940945,142.054733 30.112951,139.516449 
	C80.004295,139.516449 129.585175,139.516449 179.947418,139.516449 
	C179.947418,160.678467 179.947418,181.560455 179.947418,202.752167 
	C167.676453,202.752167 154.931305,202.752167 141.815506,202.752167 
	C140.983276,194.136353 140.171677,185.734329 139.360336,177.334854 
	C115.163040,177.334854 91.389709,177.334854 67.794113,177.334854 
	C67.447960,177.880981 67.135071,178.144699 67.132088,178.411880 
	C66.700935,217.061020 66.148285,255.714722 75.946564,293.588806 
	C85.481926,330.446594 105.401962,360.232208 136.282074,382.602936 
	C140.865067,385.922974 145.389709,389.334503 150.103516,392.459045 
	C152.959000,394.351807 156.126465,395.773956 160.321609,398.037720 
	C156.522079,358.308716 152.841141,319.819519 149.091293,280.610077 
	C137.464386,280.610077 126.022987,280.610077 113.445969,280.610077 
	C111.146767,265.890472 108.934090,251.724838 106.579056,236.647781 
	C131.846390,236.647781 155.543091,236.647781 180.106094,236.647781 
	C180.106094,303.912262 180.106094,371.160156 180.106567,438.894287 
z"/>
<path fill="#FFFFFF" opacity="1.000000" stroke="none" 
	d="
M212.138077,66.994759 
	C211.171585,64.034126 210.205093,61.073494 208.889511,57.043510 
	C206.637863,59.584114 205.081055,61.461029 203.398880,63.217918 
	C196.205048,70.731186 187.265549,75.334785 177.604950,78.824127 
	C173.878387,80.170135 170.091736,81.646637 166.766678,83.750069 
	C157.784821,89.431953 154.889389,98.594414 158.868851,108.458061 
	C163.110214,118.970879 174.649139,132.274094 190.921921,131.230072 
	C194.564255,130.996384 198.242798,131.327255 202.245209,131.704361 
	C188.016998,132.155060 173.448471,132.329605 158.879410,132.431091 
	C151.920975,132.479568 144.961548,132.389313 137.540558,132.354706 
	C134.802246,125.851250 131.643097,119.500092 130.543411,112.810402 
	C129.738358,107.913055 131.638992,102.570946 133.007080,97.204788 
	C133.929733,96.963753 134.179001,96.945000 134.428253,96.926239 
	C134.914154,98.499039 135.517029,100.046303 135.866928,101.648811 
	C138.089264,111.827141 141.320938,114.927711 152.386368,116.798546 
	C151.817184,113.260056 151.449997,109.898155 150.715454,106.618538 
	C148.729477,97.751694 151.593277,90.404884 158.091339,84.602539 
	C161.769516,81.318169 166.114243,78.703300 170.399246,76.198273 
	C174.258026,73.942413 178.393738,72.131462 182.496841,70.327934 
	C192.934494,65.740028 203.215454,60.998318 208.396362,49.257366 
	C214.294159,54.188656 214.189529,60.106956 213.382965,66.549286 
	C212.719482,66.982948 212.428833,66.991112 212.138077,66.994759 
z"/>
<path fill="#FEF3F3" opacity="1.000000" stroke="none" 
	d="
M222.006744,71.022804 
	C227.808441,64.905128 233.952332,59.990932 241.057617,58.513317 
	C244.461548,65.384026 247.661819,71.783165 250.807953,78.208801 
	C255.126282,87.028488 255.724640,95.817184 249.716171,104.480545 
	C249.815903,102.629036 249.574936,100.678787 250.077728,98.944107 
	C251.744339,93.194069 249.871689,88.189255 247.287445,83.251366 
	C244.530350,77.983215 241.798630,72.701790 238.785172,66.905548 
	C228.670227,70.251732 223.023438,79.501625 215.601120,86.864143 
	C214.882812,81.647659 216.376312,78.004753 222.006744,71.022804 
z"/>
<path fill="#FFF8F8" opacity="1.000000" stroke="none" 
	d="
M212.103653,67.284424 
	C212.428833,66.991112 212.719482,66.982948 213.228027,66.971939 
	C213.269852,67.498360 213.093643,68.023117 212.917435,68.547874 
	C212.634705,68.223274 212.351959,67.898682 212.103653,67.284424 
z"/>
<path fill="#FFF8F8" opacity="1.000000" stroke="none" 
	d="
M134.304611,96.617737 
	C134.179001,96.945000 133.929733,96.963753 133.305573,96.989746 
	C133.347427,96.767723 133.764191,96.538475 134.304611,96.617737 
z"/>
<path fill="#F7F6F9" opacity="1.000000" stroke="none" 
	d="
M649.698120,280.056091 
	C647.097107,280.060303 644.945496,280.060303 642.457764,280.060303 
	C642.457764,274.831970 642.457764,269.806244 642.457764,264.283905 
	C645.084290,264.283905 647.537598,264.164398 649.975464,264.307434 
	C656.074829,264.665344 659.176636,267.223816 659.301636,271.824707 
	C659.435181,276.740234 656.637329,279.254761 649.698120,280.056091 
z"/>
<path fill="#F7F6F9" opacity="1.000000" stroke="none" 
	d="
M642.464111,253.606781 
	C642.200562,249.073853 642.200562,244.933563 642.200562,240.030670 
	C645.549133,240.281342 648.643127,240.320969 651.670227,240.790985 
	C655.017273,241.310715 657.024170,243.334793 657.002747,246.932632 
	C656.980957,250.596710 655.046570,253.128815 651.639771,253.810135 
	C648.771179,254.383850 645.705872,253.973923 642.464111,253.606781 
z"/>
<path fill="#F9F9FB" opacity="1.000000" stroke="none" 
	d="
M464.954071,242.404510 
	C467.710419,239.720459 474.557526,239.771729 477.574402,242.149185 
	C480.846252,244.727585 480.769470,248.258148 479.558105,251.658234 
	C477.946716,256.180969 473.743896,257.510254 464.944336,256.592529 
	C464.944336,252.057678 464.944336,247.459946 464.954071,242.404510 
z"/>
<path fill="#F9F9FB" opacity="1.000000" stroke="none" 
	d="
M1201.491455,254.525818 
	C1197.350952,255.800415 1193.501343,256.800751 1189.143311,257.933167 
	C1189.143311,251.401627 1189.143311,246.165955 1189.143311,240.411682 
	C1194.098145,240.525497 1199.431274,238.976852 1202.888184,243.746063 
	C1205.358032,247.153366 1204.614380,251.002319 1201.491455,254.525818 
z"/>
<path fill="#F7F6F9" opacity="1.000000" stroke="none" 
	d="
M701.864014,256.858398 
	C703.404358,251.919952 704.847290,247.368103 706.445557,242.326477 
	C708.946167,250.379944 711.317688,258.017456 713.815002,266.060211 
	C708.764099,266.060211 704.215027,266.060211 698.939087,266.060211 
	C699.923767,262.990417 700.845215,260.117706 701.864014,256.858398 
z"/>
<path fill="#F9F9FB" opacity="1.000000" stroke="none" 
	d="
M772.407104,245.995605 
	C774.039490,256.781982 770.575684,259.726105 757.379333,258.974701 
	C757.379333,253.110764 757.379333,247.215622 757.379333,240.852753 
	C762.847900,241.001297 768.748962,239.157501 772.407104,245.995605 
z"/>
<path fill="#FDFDFE" opacity="1.000000" stroke="none" 
	d="
M1005.927551,322.758301 
	C1009.059509,322.939789 1011.763672,322.843262 1014.350098,323.348816 
	C1025.576660,325.543243 1031.003418,332.735626 1031.071289,345.203156 
	C1031.140991,358.011658 1025.128174,366.680267 1014.081482,368.756470 
	C1008.933899,369.723969 1003.583252,369.611359 997.958618,370.014557 
	C997.958618,353.979889 997.958618,338.623077 997.958618,322.757385 
	C1000.552429,322.757385 1002.998962,322.757385 1005.927551,322.758301 
z"/>
<path fill="#FDFCFD" opacity="1.000000" stroke="none" 
	d="
M863.585083,335.761963 
	C863.805054,342.561584 864.738220,349.129120 863.725342,355.381409 
	C862.262756,364.410034 855.187866,369.752136 845.783081,370.667328 
	C837.127441,371.509613 829.452942,367.002838 825.834290,358.664490 
	C822.430481,350.821289 822.433289,342.752869 825.411865,334.821320 
	C828.602844,326.323883 835.707275,321.710999 844.736755,321.783051 
	C854.127014,321.858002 859.817383,326.000000 863.585083,335.761963 
z"/>
<path fill="#F9F9FB" opacity="1.000000" stroke="none" 
	d="
M896.085938,344.180664 
	C894.324463,344.098145 893.033936,344.015656 891.505981,343.917969 
	C891.505981,336.953461 891.505981,330.214355 891.505981,323.118408 
	C896.166748,323.118408 900.790649,322.664215 905.282654,323.239471 
	C910.303345,323.882477 913.135010,328.159058 912.922180,333.350586 
	C912.695862,338.871155 908.956848,343.211823 903.523804,343.955505 
	C901.234131,344.268921 898.881104,344.119629 896.085938,344.180664 
z"/>
<path fill="#F9F9FB" opacity="1.000000" stroke="none" 
	d="
M948.381531,352.995514 
	C947.101440,352.995300 946.277283,352.995300 944.682007,352.995300 
	C948.032776,343.656342 951.240356,334.716583 954.815613,324.751984 
	C958.411133,334.510284 961.725464,343.505432 965.222229,352.995728 
	C959.390503,352.995728 954.114014,352.995728 948.381531,352.995514 
z"/>
<path fill="#F9F9FB" opacity="1.000000" stroke="none" 
	d="
M737.312378,327.659912 
	C737.744080,326.561951 738.042603,325.794159 738.457947,324.726074 
	C741.879578,334.174896 745.206482,343.362274 748.649963,352.871582 
	C741.665405,352.871582 735.362976,352.871582 728.303894,352.871582 
	C731.334656,344.375153 734.256958,336.182587 737.312378,327.659912 
z"/>
<path fill="#FFFFFF" opacity="1.000000" stroke="none" 
	d="
M230.503723,445.237762 
	C230.426651,444.980011 230.689590,444.507782 231.207367,444.272522 
	C231.256042,444.680756 231.049896,444.852020 230.503723,445.237762 
z"/>
<path fill="#FFFFFF" opacity="1.000000" stroke="none" 
	d="
M74.772903,412.725555 
	C74.493851,412.726318 74.423500,412.500031 74.353149,412.273712 
	C74.562637,412.348633 74.772118,412.423553 74.772903,412.725555 
z"/>
<path fill="#FFFFFF" opacity="1.000000" stroke="none" 
	d="
M71.250320,406.298889 
	C71.504135,406.302612 71.564537,406.510925 71.624939,406.719269 
	C71.435593,406.647339 71.246246,406.575409 71.250320,406.298889 
z"/>
<path fill="#F7F6F9" opacity="1.000000" stroke="none" 
	d="
M287.461212,399.110779 
	C288.244904,399.546021 288.898834,399.769135 289.001678,400.143616 
	C289.549469,402.138245 289.959320,404.170746 290.416901,406.190125 
	C288.777832,406.454071 286.553162,407.500458 285.629150,406.808960 
	C284.014648,405.600739 283.199890,403.323761 282.050018,401.494659 
	C283.725739,400.652618 285.401428,399.810547 287.461212,399.110779 
z"/>
<path fill="#F7F6F9" opacity="1.000000" stroke="none" 
	d="
M212.189911,455.645813 
	C212.934708,456.371033 213.687836,456.838593 213.730270,457.363586 
	C213.899918,459.463043 214.138870,461.647797 213.674957,463.643555 
	C213.559204,464.141541 210.016510,464.695770 209.597519,464.112213 
	C208.288788,462.289490 207.272003,459.963165 207.132614,457.769135 
	C207.089310,457.087402 210.203140,456.205048 212.189911,455.645813 
z"/>
<path fill="#221661" opacity="1.000000" stroke="none" 
	d="
M232.392883,370.392334 
	C223.741959,379.371002 214.901474,387.537842 203.193726,393.946655 
	C204.346176,382.408264 205.355057,372.059387 206.417908,361.716095 
	C208.934311,337.227356 211.539673,312.747528 213.972305,288.250549 
	C214.778763,280.129303 214.585373,279.931885 222.909988,279.817841 
	C234.890411,279.653717 246.875946,279.677185 258.857147,279.812622 
	C270.039154,279.938965 276.953064,286.153534 276.712769,297.367828 
	C276.567291,304.157562 274.991211,311.291443 272.391449,317.581970 
	C265.238037,334.890778 253.358917,349.073181 240.418854,362.381592 
	C237.866318,365.006836 235.234863,367.555328 232.392883,370.392334 
z"/>
<path fill="#231762" opacity="1.000000" stroke="none" 
	d="
M288.998962,188.956070 
	C288.067688,197.009598 287.364594,204.639359 286.211395,212.200470 
	C284.315216,224.633377 276.847565,232.820587 264.722168,234.742889 
	C253.490448,236.523514 241.907990,236.189392 230.472366,236.531387 
	C226.697449,236.644272 222.898773,235.962082 218.477280,235.590118 
	C219.971527,216.142487 221.445877,196.953720 222.942993,177.468567 
	C245.053543,177.468567 266.932526,177.468567 289.024963,177.468567 
	C289.024963,181.283600 289.024963,184.892532 288.998962,188.956070 
z"/>
</svg>